<svg width="854" height="150" viewBox="0 0 854 150" fill="none" xmlns="http://www.w3.org/2000/svg">
<path d="M31.0136 0L46.3077 18.3992L0 36.7984L31.0136 0Z" fill="url(#paint0_linear_525_46)"/>
<path d="M95.7059 92.7042L142.835 36.7975H166.869L95.5864 121.777L95.7059 92.7042Z" fill="url(#paint1_linear_525_46)"/>
<path d="M142.834 36.798H0L46.3077 18.3988H151.903L166.869 36.798H142.834Z" fill="url(#paint2_linear_525_46)"/>
<path d="M142.835 36.798L151.904 18.3988L166.87 36.798H142.835Z" fill="url(#paint3_linear_525_46)"/>
<path d="M151.904 18.3992H46.3087L31.0146 0H160.361L151.904 18.3992Z" fill="url(#paint4_linear_525_46)"/>
<path d="M166.869 36.7984L151.903 18.3992L160.36 0L191.083 36.7984H166.869Z" fill="url(#paint5_linear_525_46)"/>
<path d="M95.5864 121.777L166.869 36.7975H191.083L119.83 121.329L95.7506 149.999L95.5864 121.777Z" fill="url(#paint6_linear_525_46)"/>
<path d="M67.4241 88.4886L95.5864 121.779L95.7506 150.001L31.3423 73.5901L67.4241 88.4886Z" fill="url(#paint7_linear_525_46)"/>
<path d="M67.4241 88.4886L31.3423 73.5901H79.5907L67.4241 88.4886Z" fill="url(#paint8_linear_525_46)"/>
<path d="M79.5902 73.5901L67.4236 88.4886L95.5859 121.779L95.7053 92.7058L79.5902 73.5901Z" fill="url(#paint9_linear_525_46)"/>
<path d="M338.027 33.2118V53.6626H359.069V68.0831H338.027V100.896C338.027 105.409 339.009 108.622 340.973 110.536C342.936 112.449 346.072 113.403 350.389 113.403C353.921 113.403 356.816 112.912 359.069 111.93V126.351C355.538 127.427 351.516 127.968 347.003 127.968C339.55 127.968 333.492 125.882 328.828 121.715C324.165 117.548 321.839 111.489 321.839 103.54V68.0775H306.537V53.657H321.839V33.2118H338.022H338.027ZM242.244 22.7688V67.793L284.178 22.7688H305.957L259.46 72.7969L316.26 127.238H293.009L242.244 78.3866V127.238H225.174V22.7688H242.244ZM433.37 117.676C426.012 125.034 416.891 128.71 406.002 128.71C395.112 128.71 385.964 125.006 378.561 117.604C371.153 110.195 367.454 101.147 367.454 90.4529C367.454 79.7589 371.158 70.7105 378.561 63.3023C385.969 55.894 395.112 52.1955 406.002 52.1955C416.891 52.1955 426.04 55.8996 433.442 63.3023C440.85 70.7105 444.549 79.7589 444.549 90.4529C444.549 101.147 440.823 110.218 433.364 117.676H433.37ZM406.002 113.704C412.378 113.704 417.649 111.473 421.822 107.01C425.989 102.547 428.076 97.03 428.076 90.4585C428.076 83.887 425.989 78.3698 421.822 73.907C417.655 69.4442 412.378 67.2128 406.002 67.2128C399.625 67.2128 394.203 69.4442 390.036 73.907C385.869 78.3698 383.782 83.887 383.782 90.4585C383.782 97.03 385.869 102.547 390.036 107.01C394.203 111.473 399.525 113.704 406.002 113.704ZM460.292 127.238V53.6682H476.475V63.676C481.083 56.0223 488.541 52.201 498.839 52.201C507.374 52.201 514.191 54.9959 519.29 60.5855C524.389 66.1752 526.944 73.6337 526.944 82.9498V127.238H510.76V85.594C510.76 79.7087 509.388 75.1231 506.638 71.8374C503.893 68.5517 500.161 66.906 495.453 66.906C489.863 66.906 485.3 69.0147 481.769 73.232C478.238 77.4494 476.469 83.3849 476.469 91.0387V127.238H460.286H460.292ZM547.835 127.238V22.7688H579.912C595.409 22.7688 608.407 27.7727 618.905 37.775C629.404 47.7829 634.648 60.1895 634.648 75.0004C634.648 89.8114 629.399 102.224 618.905 112.226C608.412 122.228 595.409 127.232 579.912 127.232H547.835V127.238ZM565.051 111.199H579.912C590.896 111.199 599.849 107.769 606.767 100.901C613.684 94.0343 617.143 85.4044 617.143 75.006C617.143 64.6077 613.684 55.9777 606.767 49.1105C599.849 42.2434 590.901 38.8126 579.912 38.8126H565.051V111.205V111.199ZM636.997 127.238L682.612 22.7688H697.618L743.234 127.243H725.282L713.361 99.875H666.568L654.798 127.243H636.991L636.997 127.238ZM689.97 46.0145L673.195 84.5676H706.745L689.97 46.0145ZM799.733 112.376C809.936 112.376 818.566 108.745 825.628 101.487C832.691 94.2296 836.222 85.3988 836.222 75.0004C836.222 64.6021 832.691 55.7713 825.628 48.5136C818.566 41.256 809.93 37.6244 799.733 37.6244C789.535 37.6244 780.749 41.256 773.687 48.5136C766.624 55.7713 763.093 64.6021 763.093 75.0004C763.093 85.3988 766.624 94.2296 773.687 101.487C780.749 108.745 789.429 112.376 799.733 112.376ZM837.99 113.258C827.492 123.757 814.739 129 799.733 129C784.727 129 771.974 123.779 761.475 113.33C750.977 102.882 745.733 90.107 745.733 75.0004C745.733 59.8938 750.982 47.119 761.475 36.6705C771.974 26.2219 784.727 21.0004 799.733 21.0004C814.739 21.0004 827.492 26.2498 837.99 36.743C848.489 47.2417 853.733 59.9942 853.733 75.0004C853.733 90.0066 848.484 102.759 837.99 113.258Z" fill="url(#paint10_linear_525_46)"/>
<defs>
<linearGradient id="paint0_linear_525_46" x1="22.3224" y1="35.2697" x2="22.3224" y2="-1.52866" gradientUnits="userSpaceOnUse">
<stop stop-color="#ABEC79"/>
<stop offset="1" stop-color="#72D444"/>
</linearGradient>
<linearGradient id="paint1_linear_525_46" x1="130.388" y1="36.8644" x2="130.388" y2="120.144" gradientUnits="userSpaceOnUse">
<stop stop-color="#36B564"/>
<stop offset="1" stop-color="#598E69"/>
</linearGradient>
<linearGradient id="paint2_linear_525_46" x1="84.0138" y1="36.0265" x2="84.0138" y2="17.6274" gradientUnits="userSpaceOnUse">
<stop stop-color="#499D6C"/>
<stop offset="1" stop-color="#1C8441"/>
</linearGradient>
<linearGradient id="paint3_linear_525_46" x1="142.044" y1="26.8269" x2="166.079" y2="26.8269" gradientUnits="userSpaceOnUse">
<stop stop-color="#4C9B72"/>
<stop offset="1" stop-color="#25623E"/>
</linearGradient>
<linearGradient id="paint4_linear_525_46" x1="97.0983" y1="-0.771422" x2="97.0983" y2="17.2598" gradientUnits="userSpaceOnUse">
<stop stop-color="#B1F286"/>
<stop offset="1" stop-color="#6BD240"/>
</linearGradient>
<linearGradient id="paint5_linear_525_46" x1="192.532" y1="16.8705" x2="153.352" y2="16.8705" gradientUnits="userSpaceOnUse">
<stop stop-color="#A6E579"/>
<stop offset="1" stop-color="#66B740"/>
</linearGradient>
<linearGradient id="paint6_linear_525_46" x1="142.252" y1="151.409" x2="142.252" y2="38.2069" gradientUnits="userSpaceOnUse">
<stop stop-color="#399163"/>
<stop offset="1" stop-color="#205A38"/>
</linearGradient>
<linearGradient id="paint7_linear_525_46" x1="64.1065" y1="72.5291" x2="64.1065" y2="148.94" gradientUnits="userSpaceOnUse">
<stop stop-color="#54A66D"/>
<stop offset="1" stop-color="#2A6D3B"/>
</linearGradient>
<linearGradient id="paint8_linear_525_46" x1="54.5374" y1="74.8418" x2="54.5374" y2="89.7329" gradientUnits="userSpaceOnUse">
<stop stop-color="#B1F286"/>
<stop offset="1" stop-color="#79E14E"/>
</linearGradient>
<linearGradient id="paint9_linear_525_46" x1="80.6271" y1="75.2363" x2="80.6271" y2="123.418" gradientUnits="userSpaceOnUse">
<stop stop-color="#4C9D69"/>
<stop offset="1" stop-color="#256438"/>
</linearGradient>
<linearGradient id="paint10_linear_525_46" x1="235.054" y1="74.6435" x2="851.041" y2="74.6435" gradientUnits="userSpaceOnUse">
<stop stop-color="#20AB4A"/>
<stop offset="1" stop-color="#62EB15"/>
</linearGradient>
</defs>
</svg>
