<svg width="1466" height="300" viewBox="0 0 1466 300" fill="none" xmlns="http://www.w3.org/2000/svg">
<path fill-rule="evenodd" clip-rule="evenodd" d="M110.333 120L100.333 300H0.333328V200L110.333 120ZM110.333 120L300.333 200V300H200.333L110.333 120ZM100.333 0L110.333 120L0.333328 100V0H100.333ZM300.333 0V100L110.333 120L200.333 0H300.333ZM440.333 80.8296H500.055C514.968 80.8296 526.505 82.2815 534.664 85.1852C549.718 90.5778 559.777 100.464 564.842 114.844C568.64 125.906 570.54 137.728 570.54 150.311C570.54 162.756 568.711 174.509 565.053 185.57C561.395 196.909 555.345 205.274 546.904 210.667C541.558 213.985 535.684 216.232 529.283 217.407C522.882 218.583 513.139 219.17 500.055 219.17H440.333V80.8296ZM470.3 105.511V194.489H500.055C513.139 194.489 522.214 191.654 527.278 185.985C530.373 182.39 532.871 177.343 534.77 170.844C536.669 164.346 537.619 157.432 537.619 150.104C537.619 141.946 536.493 134.479 534.242 127.704C531.991 120.928 529.037 115.881 525.379 112.563C520.033 107.862 511.592 105.511 500.055 105.511H470.3ZM714.687 80.8296V105.511H675.646C665.516 105.511 658.13 106.202 653.488 107.585C648.845 108.968 644.976 111.664 641.881 115.674C639.771 118.439 638.328 121.205 637.555 123.97C636.781 126.736 636.113 131.437 635.55 138.074H714.687V162.756H635.55C636.675 174.647 640.263 182.909 646.312 187.541C652.362 192.173 662.632 194.489 677.123 194.489H714.687V219.17H675.646C665.094 219.17 655.809 218.548 647.79 217.304C635.128 215.23 625.069 209.768 617.612 200.919C606.92 188.198 601.574 170.983 601.574 149.274C601.574 125.215 609.101 106.479 624.154 93.0667C629.36 88.5037 634.882 85.3235 640.72 83.5259C646.559 81.7284 654.402 80.8296 664.25 80.8296H714.687ZM805.021 137.037H874.028V219.17H811.141C800.308 219.17 791.691 218.375 785.289 216.785C778.888 215.195 773.085 212.395 767.879 208.385C753.107 197.185 745.721 177.896 745.721 150.519C745.721 132.681 749.238 117.817 756.272 105.926C761.478 97.2148 768.583 90.8543 777.587 86.8444C786.591 82.8346 798.268 80.8296 812.618 80.8296H874.028V105.511H815.994C803.473 105.511 794.399 108.207 788.771 113.6C782.018 119.961 778.642 131.368 778.642 147.822C778.642 156.257 779.521 163.862 781.28 170.637C783.038 177.412 785.465 182.459 788.56 185.778C791.233 188.82 794.926 191.032 799.639 192.415C804.352 193.798 810.156 194.489 817.049 194.489H844.273V161.719H805.021V137.037ZM974.491 80C988.56 80 1000.94 82.3506 1011.63 87.0518C1024.15 92.721 1032.95 102.193 1038.01 115.467C1041.95 125.837 1043.92 138.005 1043.92 151.97C1043.92 166.074 1041.53 178.311 1036.75 188.681C1030.7 200.988 1021.41 209.63 1008.89 214.607C999.604 218.202 988.912 220 976.813 220C960.915 220 947.128 217.096 935.451 211.289C925.602 206.449 918.076 198.844 912.87 188.474C907.665 178.104 905.062 165.521 905.062 150.726C905.062 124.316 911.745 105.511 925.11 94.3111C936.365 84.9086 952.825 80.1383 974.491 80ZM974.702 103.23C960.915 103.23 951.067 107.654 945.158 116.504C940.375 123.417 937.983 134.548 937.983 149.896C937.983 166.074 940.937 177.965 946.846 185.57C952.755 193.037 962.111 196.77 974.913 196.77C987.294 196.77 996.404 192.968 1002.24 185.363C1008.08 177.758 1011 166.005 1011 150.104C1011 135.585 1008.61 124.523 1003.82 116.919C998.338 107.931 988.63 103.368 974.702 103.23ZM1093.72 80.8296L1135.08 184.948L1177.08 80.8296H1210.84L1149.22 219.17H1119.25L1059.95 80.8296H1093.72ZM1222.41 192.207V219.17H1196.88V192.207H1222.41ZM1253.45 219.17L1311.69 80.8296H1346.09L1404.33 219.17H1369.3L1355.58 187.23H1302.19L1288.48 219.17H1253.45ZM1328.99 114.222L1308.95 162.548H1349.04L1328.99 114.222ZM1435.37 219.17V80.8296H1465.33V219.17H1435.37Z" fill="black"/>
</svg>
