<svg width="645" height="150" viewBox="0 0 645 150" fill="none" xmlns="http://www.w3.org/2000/svg">
<path d="M579.5 0.1828C617.044 0.1828 644.881 26.2089 644.881 59.9706C644.881 60.8035 644.864 61.6331 644.829 62.4592C644.864 63.3278 644.881 64.1993 644.881 65.0728C644.881 100.69 616.228 129.568 580.877 129.568C543.333 129.568 515.496 103.542 515.496 69.7801C515.496 68.9486 515.513 68.1204 515.547 67.2958C515.513 66.4256 515.496 65.5527 515.496 64.6778C515.496 29.0608 544.149 0.1828 579.5 0.1828ZM578.777 21.2681C558.492 21.1845 539.8 31.2042 528.267 47.7112C523.68 54.2741 520.388 61.6755 518.599 69.5438L518.477 69.5345C518.477 69.6163 518.476 69.6982 518.476 69.7801C518.476 101.849 544.936 126.587 580.877 126.587C605.692 126.587 627.05 111.655 636.587 90.2157C629.654 101.908 618.769 111.166 605.442 116.056C599.696 118.032 593.965 119.034 588.122 119.034C560.05 119.034 536.334 96.0645 536.334 68.2988C536.334 62.8631 537.211 58.5882 539.489 54.6357C545.345 38.3146 560.86 26.6487 579.081 26.6487C598.488 26.6487 615.022 39.2654 620.204 56.6982C618.571 40.4386 607.085 26.8093 591.396 22.5952L590.91 22.4682L590.489 22.3849C586.79 21.6634 583.487 21.3114 579.305 21.2715L578.777 21.2681ZM579.081 29.6293C562.282 29.6293 547.955 40.3085 542.418 55.3028L542.508 55.3468C541.71 57.4713 541.47 59.086 541.47 61.4189C541.47 82.91 559.403 100.121 581.296 100.121C598.095 100.121 612.422 89.4422 617.958 74.4478L617.869 74.4039C618.666 72.2793 618.907 70.6646 618.907 68.3317C618.907 46.8406 600.974 29.6293 579.081 29.6293Z" fill="black"/>
<path d="M0 117.403V12.3176H35.818C45.4879 12.3176 53.1349 14.957 58.7593 20.236C64.3836 25.515 67.1957 32.5454 67.1957 41.3272C67.1957 49.0236 64.9016 55.3386 60.3133 60.2722C55.7251 65.2058 49.3361 68.2647 41.1463 69.4487L81.7005 117.403H64.3836L23.9773 69.5967H13.7648V117.403H0ZM13.7648 57.3121H34.1899C40.3076 57.3121 45.0438 55.9553 48.3987 53.2418C51.7535 50.5284 53.431 46.5568 53.431 41.3272C53.431 36.0976 51.7535 32.0767 48.3987 29.2645C45.0438 26.4523 40.3076 25.0463 34.1899 25.0463H13.7648V57.3121Z" fill="black"/>
<path d="M104.938 21.0501C103.26 22.7275 101.139 23.5662 98.5735 23.5662C96.008 23.5662 93.8372 22.7028 92.0611 20.9761C90.285 19.2493 89.3969 17.1032 89.3969 14.5377C89.3969 12.0709 90.285 9.94946 92.0611 8.17336C93.8372 6.39727 96.008 5.50922 98.5735 5.50922C101.139 5.50922 103.26 6.39727 104.938 8.17336C106.615 9.94946 107.454 12.0709 107.454 14.5377C107.454 17.1032 106.615 19.274 104.938 21.0501ZM92.0611 117.403V43.3993H104.79V117.403H92.0611Z" fill="black"/>
<path d="M128.915 117.403V43.3993H141.644V54.7959C146.676 46.2115 154.521 41.9192 165.177 41.9192C173.564 41.9192 180.323 44.6327 185.454 50.0597C190.585 55.4866 193.151 62.739 193.151 71.8169V117.403H180.57V73.741C180.57 67.5246 178.991 62.6157 175.834 59.0142C172.676 55.4126 168.433 53.6119 163.105 53.6119C156.987 53.6119 151.881 56.0293 147.786 60.8643C143.691 65.6992 141.644 72.3102 141.644 80.6974V117.403H128.915Z" fill="black"/>
<path d="M248.654 149.817C238.885 149.817 230.769 147.424 224.306 142.639C217.843 137.853 214.02 131.711 212.836 124.212H225.269C228.525 133.783 236.418 138.569 248.95 138.569C255.956 138.569 261.605 136.324 265.897 131.834C270.189 127.345 272.335 121.054 272.335 112.963V104.231C269.671 108.178 266.069 111.335 261.531 113.703C256.992 116.071 252.009 117.255 246.582 117.255C236.221 117.255 227.587 113.629 220.68 106.377C213.773 99.1244 210.32 90.1699 210.32 79.5133C210.32 68.9554 213.798 60.0502 220.754 52.7978C227.711 45.5454 236.32 41.9192 246.582 41.9192C252.009 41.9192 256.992 43.1033 261.531 45.4714C266.069 47.8395 269.671 50.9477 272.335 54.7959V43.3993H285.064V112.815C285.064 124.656 281.635 133.783 274.777 140.197C267.92 146.61 259.212 149.817 248.654 149.817ZM230.301 98.1623C234.938 102.997 240.957 105.415 248.358 105.415C255.758 105.415 261.777 102.973 266.415 98.0883C271.052 93.2041 273.371 87.0124 273.371 79.5133C273.371 72.0142 271.028 65.8225 266.341 60.9383C261.654 56.054 255.66 53.6119 248.358 53.6119C241.056 53.6119 235.062 56.054 230.375 60.9383C225.688 65.8225 223.344 72.0142 223.344 79.5133C223.344 87.0124 225.663 93.2287 230.301 98.1623Z" fill="black"/>
<path d="M310.965 117.403V12.3176H341.159C357.242 12.3176 370.588 17.3005 381.195 27.2664C391.802 37.2323 397.106 49.7636 397.106 64.8605C397.106 79.9573 391.802 92.4887 381.195 102.455C370.588 112.42 357.242 117.403 341.159 117.403H310.965ZM324.73 104.527H341.159C353.69 104.527 363.829 100.802 371.575 93.3521C379.32 85.9023 383.193 76.4051 383.193 64.8605C383.193 53.3158 379.32 43.8186 371.575 36.3689C363.829 28.9192 353.69 25.1943 341.159 25.1943H324.73V104.527Z" fill="black"/>
<path d="M404.654 117.403L451.129 12.3176H462.526L509.148 117.403H494.791L481.175 86.7657H432.184L418.863 117.403H404.654ZM456.605 30.9666L437.66 74.333H475.698L456.605 30.9666Z" fill="black"/>
</svg>
