<svg width="385" height="384" viewBox="0 0 385 384" fill="none" xmlns="http://www.w3.org/2000/svg">
<rect x="0.880859" width="384" height="384" fill="black"/>
<path d="M191.818 81C256.237 81 304 125.656 304 183.584C304 185.013 303.97 186.437 303.911 187.854C303.97 189.345 304 190.84 304 192.339C304 253.451 254.837 303 194.182 303C129.763 303 82 258.344 82 200.416C82 198.989 82.0297 197.568 82.0886 196.153C82.0297 194.66 82 193.162 82 191.661C82 130.549 131.163 81 191.818 81ZM190.579 117.178C155.773 117.035 123.701 134.227 103.913 162.55C96.0432 173.81 90.3936 186.51 87.3241 200.01L87.1149 199.994C87.1143 200.135 87.114 200.275 87.114 200.416C87.114 255.44 132.513 297.886 194.182 297.886C236.76 297.886 273.406 272.265 289.769 235.479C277.874 255.541 259.197 271.426 236.331 279.817C226.471 283.207 216.638 284.926 206.613 284.926C158.447 284.926 117.754 245.515 117.754 197.874C117.754 188.547 119.26 181.213 123.169 174.431C133.216 146.427 159.836 126.411 191.1 126.411C224.399 126.411 252.768 148.058 261.658 177.97C258.858 150.071 239.149 126.686 212.23 119.455L211.396 119.237L210.673 119.095C204.328 117.857 198.659 117.253 191.484 117.184L190.579 117.178ZM191.1 131.525C162.276 131.525 137.693 149.848 128.194 175.575L128.348 175.651C126.979 179.296 126.566 182.067 126.566 186.07C126.566 222.944 157.336 252.475 194.9 252.475C223.724 252.475 248.307 234.152 257.806 208.425L257.652 208.349C259.021 204.704 259.434 201.933 259.434 197.93C259.434 161.056 228.664 131.525 191.1 131.525Z" fill="white"/>
</svg>
