<?xml version="1.0" encoding="UTF-8"?>
<svg width="500px" height="500px" viewBox="0 0 500 500" version="1.1" xmlns="http://www.w3.org/2000/svg" xmlns:xlink="http://www.w3.org/1999/xlink">
    <title>profile</title>
    <g id="profile" stroke="none" stroke-width="1" fill="none" fill-rule="evenodd">
        <rect fill="#000000" x="0" y="0" width="500" height="500"></rect>
        <path d="M247.031109,64 C354.395023,64 434,138.627416 434,235.435943 C434,237.824206 433.951385,240.203007 433.851297,242.571772 C433.951385,245.062401 434,247.561346 434,250.066026 C434,352.195027 352.061522,435 250.968891,435 C143.604977,435 64,360.372871 64,263.56377 C64,261.179521 64.0486146,258.804735 64.1458438,256.440271 C64.0486146,253.945054 64,251.442095 64,248.9334 C64,146.804973 145.938478,64 247.031109,64 Z M244.963558,124.457174 C186.954902,124.220417 133.50172,152.950973 100.521003,200.283257 C87.4036403,219.10176 77.989566,240.324585 72.8735943,262.886202 C72.6391004,263.181354 72.5218534,263.40721 72.5218534,263.56377 C72.5218534,355.518351 148.189048,426.45226 250.968891,426.45226 C321.931909,426.45226 383.009004,383.636142 410.281795,322.160948 C390.455617,355.687528 359.327975,382.23398 321.216988,396.2556 C304.785253,401.921595 288.396414,404.794737 271.68729,404.794737 C191.410287,404.794737 123.590061,338.931837 123.590061,259.31628 C123.590061,243.729917 126.098002,231.47204 132.612358,220.138615 C149.358658,173.339382 193.72663,139.888501 245.832902,139.888501 C301.330757,139.888501 348.612745,176.065712 363.431619,226.052641 C358.761758,179.429754 325.915446,140.349007 281.04989,128.265468 L279.660084,127.901307 L278.456158,127.662452 C267.878193,125.593618 258.432662,124.584291 246.473471,124.469881 L244.963558,124.457174 Z M245.832902,148.435094 C197.793098,148.435094 156.822429,179.056704 140.988368,222.051462 L141.245739,222.177628 C138.963713,228.269433 138.277389,232.899435 138.277389,239.588808 C138.277389,301.212534 189.560073,350.563472 252.167098,350.563472 C300.206902,350.563472 341.177571,319.943009 357.008772,276.947965 L356.754261,276.822086 C359.033427,270.729993 359.722611,266.099991 359.722611,259.410618 C359.722611,197.786892 308.439927,148.435094 245.832902,148.435094 Z" id="形状" fill="#FFFFFF" fill-rule="nonzero"></path>
        <g id="编组" transform="translate(164, 219)" fill="#FFFFFF" fill-rule="nonzero">
            <path d="M0,62.157754 L10.0265226,62.157754 L10.0265226,35.8796791 L32.7986248,35.8796791 L43.8447937,62.157754 L54.2111984,62.157754 L42.8251473,34.868984 C49.7927308,32.342246 54.2111984,25.7727273 54.2111984,18.3609626 C54.2111984,8.75935829 47.0736739,0.842245989 36.367387,0.842245989 L0,0.842245989 L0,62.157754 Z M10.0265226,27.1203209 L10.0265226,9.60160428 L35.3477407,9.60160428 C40.6159136,9.60160428 44.1846758,13.1390374 44.1846758,18.3609626 C44.1846758,23.5828877 40.6159136,27.1203209 35.3477407,27.1203209 L10.0265226,27.1203209 Z" id="形状"></path>
            <path d="M86.3300589,63 C94.997053,63 102.984283,59.4625668 108.762279,53.7352941 L102.134578,47.1657754 C98.2259332,51.3770053 92.6178782,54.0721925 86.3300589,54.0721925 C73.7544204,54.0721925 64.4076621,43.9652406 64.4076621,31.5 C64.4076621,19.0347594 73.7544204,8.92780749 86.3300589,8.92780749 C92.7878193,8.92780749 98.2259332,11.4545455 102.134578,15.6657754 L108.93222,8.92780749 C103.324165,3.53743316 95.6768173,0 86.3300589,0 C68.8261297,0 54.2111984,14.1497326 54.2111984,31.5 C54.2111984,50.197861 67.4666012,63 86.3300589,63 Z" id="路径"></path>
            <path d="M141.051081,63 C158.385069,63 173,48.6818182 173,31.5 L141.051081,31.5 L141.051081,40.2593583 L161.274067,40.2593583 C158.045187,48.3449198 150.397839,54.0721925 141.051081,54.0721925 C128.475442,54.0721925 119.128684,43.9652406 119.128684,31.5 C119.128684,19.0347594 128.475442,8.92780749 141.051081,8.92780749 C147.508841,8.92780749 152.946955,11.4545455 156.855599,15.6657754 L163.653242,8.92780749 C158.045187,3.53743316 150.397839,0 141.051081,0 C123.547151,0 108.93222,14.1497326 108.93222,31.5 C108.93222,50.197861 122.187623,63 141.051081,63 Z" id="路径"></path>
        </g>
    </g>
</svg>