<svg width="600" height="881" viewBox="0 0 600 881" fill="none" xmlns="http://www.w3.org/2000/svg">
<path d="M187.005 47.9377C178.559 46.6346 178.203 46.4817 182.177 45.8742C189.794 44.7092 207.779 46.2969 220.172 49.2281C249.106 56.0685 275.434 73.5917 303.537 104.713L311.003 112.981L321.684 111.273C366.68 104.081 412.454 109.797 450.74 127.388C461.273 132.228 477.879 141.861 479.954 144.337C480.615 145.126 481.829 150.204 482.651 155.624C485.495 174.373 484.071 188.744 478.306 199.478C475.168 205.319 474.993 207.17 477.102 212.169C478.786 216.158 483.481 219.11 488.129 219.104C497.644 219.091 507.884 203.794 512.629 182.509L514.514 174.054L518.248 178.261C538.728 201.339 554.815 232.813 557.578 255.216L558.298 261.058L554.855 255.747C548.93 246.61 542.978 240.39 535.354 235.373C521.613 226.33 507.084 223.252 468.605 221.235C433.853 219.414 414.184 216.461 394.681 210.136C361.498 199.376 344.771 185.045 305.354 133.609C287.847 110.763 277.026 98.1232 266.262 87.9438C241.803 64.8142 217.769 52.6839 187.005 47.9377Z" fill="black"/>
<path d="M487.792 98.9473C488.667 83.6384 490.755 73.5408 494.951 64.3193C496.612 60.6691 498.168 57.6817 498.409 57.6817C498.649 57.6817 497.927 60.376 496.804 63.6683C493.753 72.6179 493.252 84.8587 495.353 99.1003C498.021 117.17 499.538 119.778 518.741 139.298C527.748 148.453 538.224 160 542.022 164.958L548.927 173.972L542.022 167.53C533.577 159.652 514.156 144.288 509.866 142.092C506.989 140.619 506.562 140.644 504.787 142.401C503.152 144.019 502.808 146.451 502.58 157.949C502.227 175.868 499.772 187.37 493.845 198.87C490.64 205.09 490.134 203.763 493.035 196.742C495.201 191.5 495.421 189.195 495.405 171.848C495.371 136.994 491.212 128.615 466.813 114.261C460.632 110.624 450.448 105.38 444.182 102.606C437.916 99.832 432.939 97.4159 433.12 97.2354C433.811 96.5514 457.605 103.459 467.182 107.123C481.427 112.573 483.778 113.279 485.509 112.622C486.668 112.181 487.229 108.822 487.792 98.9473Z" fill="black"/>
<path d="M203.41 158.573C186.264 135.095 175.656 99.0981 177.953 72.1888L178.663 63.8615L182.566 64.5699C189.895 65.8995 202.532 70.5777 208.449 74.1525C224.688 83.9612 231.717 96.8754 238.87 130.037C240.965 139.75 243.713 150.742 244.978 154.463C247.014 160.453 254.708 174.444 260.963 183.53C265.469 190.075 262.476 193.176 252.516 192.281C237.306 190.916 216.702 176.773 203.41 158.573Z" fill="black"/>
<path d="M466.996 333.307C386.868 301.22 358.647 273.367 358.647 226.372C358.647 219.456 358.886 213.798 359.178 213.798C359.47 213.798 362.57 216.08 366.067 218.87C382.315 231.832 400.51 237.368 450.881 244.677C480.521 248.978 497.202 252.452 512.588 257.527C561.495 273.659 591.753 306.397 598.968 350.988C601.066 363.944 599.836 388.242 596.436 401.048C593.752 411.163 585.563 429.394 583.391 430.093C582.789 430.287 582.198 427.991 582.043 424.868C581.219 408.124 572.713 391.823 558.426 379.612C542.182 365.73 520.357 354.676 466.996 333.307Z" fill="black"/>
<path d="M410.743 346.638C409.739 340.696 407.998 333.108 406.874 329.775L404.829 323.716L408.627 327.956C413.882 333.822 418.035 341.33 421.555 351.329C424.241 358.96 424.543 361.23 424.523 373.631C424.503 385.806 424.167 388.358 421.687 395.227C417.775 406.059 412.921 413.739 404.776 421.983C390.139 436.8 371.321 445.003 344.165 448.405C339.444 448.996 325.686 449.992 313.591 450.618C283.109 452.195 263.048 455.452 245.021 461.747C242.429 462.653 240.115 463.204 239.88 462.97C239.151 462.248 251.424 454.971 261.562 450.114C275.856 443.265 290.086 439.528 321.967 434.248C337.716 431.638 353.98 428.473 358.111 427.214C397.112 415.32 417.16 384.628 410.743 346.638Z" fill="black"/>
<path d="M447.475 411.519C436.829 388.757 434.384 366.78 440.217 346.284C440.841 344.094 441.844 342.302 442.448 342.302C443.051 342.302 445.563 343.652 448.029 345.303C452.935 348.588 462.775 354.12 488.988 368.335C521.698 386.073 540.348 399.808 553.03 415.5C564.138 429.243 571.011 444.894 574.319 463.981C576.193 474.792 575.095 500.806 572.306 511.693C563.511 546.019 543.071 572.983 513.918 588.717C509.646 591.021 505.812 592.914 505.396 592.922C504.981 592.931 506.538 588.995 508.855 584.175C518.662 563.785 519.779 543.951 512.364 521.873C507.824 508.356 498.567 491.862 479.878 463.985C458.148 431.575 452.82 422.949 447.475 411.519Z" fill="black"/>
<path d="M146.507 534.334C176.242 509.363 213.239 491.623 246.94 486.178C261.464 483.831 285.659 484.762 299.108 488.186C320.667 493.674 339.952 505.964 349.981 520.607C359.783 534.919 363.988 547.39 368.366 575.139C370.093 586.085 371.972 597.077 372.54 599.565C375.828 613.946 382.226 625.441 390.155 631.214C402.748 640.381 424.433 640.952 445.765 632.675C449.385 631.27 452.529 630.3 452.75 630.519C453.523 631.283 442.781 638.435 435.203 642.2C425.007 647.265 416.899 649.224 406.125 649.224C386.588 649.224 370.368 639.339 356.833 619.183C354.169 615.216 348.183 603.334 343.529 592.78C329.239 560.362 322.183 550.486 305.59 539.678C291.151 530.274 272.529 528.59 258.519 535.422C240.117 544.396 234.983 567.785 248.163 582.608C253.401 588.499 263.17 593.581 271.158 594.568C286.101 596.417 298.943 585.11 298.943 570.104C298.943 560.361 295.178 554.8 285.699 550.546C272.753 544.735 258.837 551.527 258.903 563.623C258.932 568.782 261.191 572.021 266.389 574.36C269.724 575.861 269.802 575.98 267.082 575.418C255.203 572.968 252.421 558.725 261.972 549.269C273.438 537.918 297.15 542.927 305.292 558.422C308.713 564.93 309.11 577.891 306.128 585.717C299.453 603.235 279.991 612.447 260.248 607.435C246.806 604.021 241.333 600.325 225.126 583.723C196.965 554.87 186.033 549.28 145.434 542.976L137.654 541.768L146.507 534.334Z" fill="black"/>
<path fill-rule="evenodd" clip-rule="evenodd" d="M14.3713 17.9408C108.416 131.468 173.19 178.307 180.388 188.203C186.331 196.374 184.094 203.72 173.913 209.478C168.251 212.678 156.61 215.922 150.782 215.922C144.19 215.922 141.926 213.393 141.926 213.393C138.104 209.787 135.951 210.418 116.323 175.764C89.0728 133.708 66.2679 98.8213 65.6457 98.2372C64.2071 96.8863 64.2318 96.932 113.545 184.689C121.512 202.98 115.129 209.694 115.129 212.299C115.129 217.599 113.676 220.384 107.103 227.676C96.1458 239.834 91.2476 253.495 87.7118 281.767C83.748 313.459 72.6019 335.847 41.7127 374.162C23.6313 396.591 20.6727 400.702 16.1102 409.742C10.3634 421.125 8.78322 427.502 8.14278 441.877C7.46586 457.076 8.78424 466.894 13.4529 481.426C17.5401 494.147 21.8065 502.548 32.7133 519.35C42.1257 533.85 47.5454 544.625 47.5454 548.84C47.5454 552.194 48.1891 552.198 62.7744 548.923C97.6789 541.083 126.021 527.295 141.961 510.398C151.827 499.94 154.143 494.164 154.218 479.832C154.267 470.458 153.936 468.495 151.388 463.103C147.24 454.325 139.69 447.027 123.05 435.712C101.246 420.887 91.9331 408.953 89.3606 392.539C87.2505 379.072 89.6985 369.57 101.761 344.426C114.246 318.399 117.339 307.308 119.432 281.074C120.784 264.126 122.656 257.441 127.552 252.076C132.658 246.481 137.255 244.587 149.892 242.869C170.495 240.07 183.614 234.768 194.397 224.885C203.752 216.312 207.666 208.05 208.267 195.614L208.723 186.188L203.495 180.126C184.564 158.172 1.69335 0.683105 0.528324 0.683105C0.279443 0.683105 6.50904 8.44962 14.3713 17.9408ZM58.1722 459.074C62.4525 451.535 60.1783 441.842 53.0187 437.108C46.2538 432.633 35.745 434.74 35.745 440.571C35.745 442.35 36.7341 443.644 38.9633 444.786C42.7169 446.707 42.9893 448.867 40.036 453.282C37.0452 457.753 37.2865 461.685 40.7172 464.356C46.2463 468.662 54.0732 466.294 58.1722 459.074Z" fill="black"/>
<path fill-rule="evenodd" clip-rule="evenodd" d="M221.725 247.814C212.053 250.769 202.651 260.964 199.74 271.654C197.965 278.176 198.972 289.616 201.632 293.149C205.928 298.856 210.083 300.359 221.333 300.281C243.359 300.128 262.507 290.732 264.733 278.986C266.558 269.358 258.148 256.015 246.565 250.157C240.587 247.135 227.875 245.936 221.725 247.814ZM247.473 267.839C250.869 263.039 249.384 257.851 243.607 254.342C232.606 247.661 215.969 253.19 215.969 263.527C215.969 268.672 224.645 274.286 232.597 274.286C237.89 274.286 245.133 271.147 247.473 267.839Z" fill="black"/>
<path d="M518.542 880.747V770.438H534.463V782.947C538.85 775.799 547.298 768.488 561.432 768.488C582.551 768.488 597.822 785.221 597.822 810.565C597.822 835.909 582.551 852.642 561.432 852.642C546.973 852.642 538.687 845.006 534.626 838.508V880.747H518.542ZM557.695 839.808C573.453 839.808 581.089 826.648 581.089 810.565C581.089 794.482 573.453 781.322 557.695 781.322C541.937 781.322 533.976 794.807 533.976 810.565C533.976 826.323 541.937 839.808 557.695 839.808Z" fill="black"/>
<path d="M458.524 852.642C444.065 852.642 431.069 843.869 431.069 828.923C431.069 814.302 441.303 807.641 458.687 804.229L469.734 801.955C478.344 800.168 482.405 798.381 482.405 791.72C482.405 785.059 476.882 780.348 467.134 780.348C456.575 780.348 449.751 786.846 449.101 797.568L432.531 796.106C433.668 778.886 447.477 768.488 467.297 768.488C487.767 768.488 498.651 778.398 498.651 795.294V850.692H483.218V841.27H483.055C479.319 847.443 471.033 852.642 458.524 852.642ZM462.748 841.107C474.12 841.107 483.055 833.634 483.055 820.313V810.565C466.16 813.327 458.199 815.601 453.325 818.688C449.589 820.962 447.477 824.212 447.477 828.598C447.477 836.071 453.65 841.107 462.748 841.107Z" fill="black"/>
<path d="M327.685 850.688L302.179 770.434H319.237L336.783 831.031H336.945L355.141 770.434H371.224L389.582 830.868H389.744L407.29 770.434H424.023L398.517 850.688H381.621L363.426 788.791H363.264L344.743 850.688H327.685Z" fill="black"/>
<path d="M262.815 852.642C242.832 852.642 228.211 843.382 226.424 824.212L242.345 822.262C243.157 834.934 252.092 840.782 263.14 840.782C274.024 840.782 281.335 835.909 281.335 828.111C281.335 820.313 273.862 818.688 263.79 816.414L251.93 813.652C238.933 810.565 229.998 804.392 229.998 792.045C229.998 778.398 243.482 768.488 262.49 768.488C280.848 768.488 293.357 777.748 295.469 792.695L279.386 794.969C278.248 785.384 271.263 780.348 261.84 780.348C252.255 780.348 246.082 785.059 246.082 791.232C246.082 797.081 249.656 799.193 259.728 801.467L271.588 804.229C288.483 808.128 297.418 813.652 297.418 826.486C297.418 842.569 282.472 852.642 262.815 852.642Z" fill="black"/>
<path d="M196.475 850.691V770.436H212.559V850.691H196.475ZM196.475 757.927V738.919H212.559V757.927H196.475Z" fill="black"/>
<path d="M106.557 850.692V770.438H122.477V781.81H122.64C127.189 774.824 136.124 768.488 148.308 768.488C166.179 768.488 176.739 779.211 176.739 798.706V850.692H160.655V805.691C160.655 791.232 157.406 781.972 143.922 781.972C130.438 781.972 122.64 792.857 122.64 805.854V850.692H106.557Z" fill="black"/>
<path d="M44.0124 852.64C17.3692 852.64 1.12335 837.532 1.12335 809.751V738.919H18.019V808.777C18.019 826.809 26.4669 838.506 44.0124 838.506C63.02 838.506 70.0057 826.809 70.0057 808.777V738.919H86.9014V809.751C86.9014 837.532 70.6556 852.64 44.0124 852.64Z" fill="black"/>
</svg>
