<svg width="256" height="256" viewBox="0 0 256 256" fill="none" xmlns="http://www.w3.org/2000/svg">
<path d="M41.5521 28L62.0427 52.648L0 77.296L41.5521 28Z" fill="url(#paint0_linear_488_184)"/>
<path d="M128.219 152.2L191.356 77.2959H223.559L128.056 191.146L128.219 152.2Z" fill="url(#paint1_linear_488_184)"/>
<path d="M191.356 77.2959H0L62.0427 52.6479H203.515L223.559 77.2959H191.356Z" fill="url(#paint2_linear_488_184)"/>
<path d="M191.356 77.2959L203.515 52.6479L223.559 77.2959H191.356Z" fill="url(#paint3_linear_488_184)"/>
<path d="M203.515 52.648H62.0426L41.5521 28H214.839L203.515 52.648Z" fill="url(#paint4_linear_488_184)"/>
<path d="M223.559 77.296L203.515 52.648L214.839 28L256 77.296H223.559Z" fill="url(#paint5_linear_488_184)"/>
<path d="M128.056 191.146L223.559 77.2959H256L160.541 190.545L128.278 228.96L128.056 191.146Z" fill="url(#paint6_linear_488_184)"/>
<path d="M90.3266 146.545L128.056 191.146L128.278 228.96L41.9905 126.592L90.3266 146.545Z" fill="url(#paint7_linear_488_184)"/>
<path d="M90.3266 146.545L41.9905 126.592H106.634L90.3266 146.545Z" fill="url(#paint8_linear_488_184)"/>
<path d="M106.634 126.592L90.3265 146.545L128.056 191.146L128.219 152.2L106.634 126.592Z" fill="url(#paint9_linear_488_184)"/>
<defs>
<linearGradient id="paint0_linear_488_184" x1="3102.13" y1="4957.6" x2="3102.13" y2="28" gradientUnits="userSpaceOnUse">
<stop stop-color="#ABEC79"/>
<stop offset="1" stop-color="#72D444"/>
</linearGradient>
<linearGradient id="paint1_linear_488_184" x1="4903.19" y1="77.2959" x2="4903.19" y2="11250" gradientUnits="userSpaceOnUse">
<stop stop-color="#36B564"/>
<stop offset="1" stop-color="#598E69"/>
</linearGradient>
<linearGradient id="paint2_linear_488_184" x1="11177.9" y1="2517.45" x2="11177.9" y2="52.6479" gradientUnits="userSpaceOnUse">
<stop stop-color="#499D6C"/>
<stop offset="1" stop-color="#1C8441"/>
</linearGradient>
<linearGradient id="paint3_linear_488_184" x1="191.356" y1="1285.05" x2="3411.6" y2="1285.05" gradientUnits="userSpaceOnUse">
<stop stop-color="#4C9B72"/>
<stop offset="1" stop-color="#25623E"/>
</linearGradient>
<linearGradient id="paint4_linear_488_184" x1="8705.88" y1="28" x2="8705.88" y2="2444.99" gradientUnits="userSpaceOnUse">
<stop stop-color="#B1F286"/>
<stop offset="1" stop-color="#6BD240"/>
</linearGradient>
<linearGradient id="paint5_linear_488_184" x1="5452.02" y1="2492.8" x2="203.515" y2="2492.8" gradientUnits="userSpaceOnUse">
<stop stop-color="#A6E579"/>
<stop offset="1" stop-color="#66B740"/>
</linearGradient>
<linearGradient id="paint6_linear_488_184" x1="6525.25" y1="15243.7" x2="6525.25" y2="77.2959" gradientUnits="userSpaceOnUse">
<stop stop-color="#399163"/>
<stop offset="1" stop-color="#205A38"/>
</linearGradient>
<linearGradient id="paint7_linear_488_184" x1="4356.35" y1="126.592" x2="4356.35" y2="10363.4" gradientUnits="userSpaceOnUse">
<stop stop-color="#54A66D"/>
<stop offset="1" stop-color="#2A6D3B"/>
</linearGradient>
<linearGradient id="paint8_linear_488_184" x1="3274.17" y1="126.592" x2="3274.17" y2="2121.9" gradientUnits="userSpaceOnUse">
<stop stop-color="#B1F286"/>
<stop offset="1" stop-color="#79E14E"/>
</linearGradient>
<linearGradient id="paint9_linear_488_184" x1="1984.96" y1="126.592" x2="1984.96" y2="6582.01" gradientUnits="userSpaceOnUse">
<stop stop-color="#4C9D69"/>
<stop offset="1" stop-color="#256438"/>
</linearGradient>
</defs>
</svg>
