<svg width="100" height="25" viewBox="0 0 100 25" fill="none" xmlns="http://www.w3.org/2000/svg">
<path d="M5.40723 1.22461C6.793 0.0129615 8.64824 0.531379 10.1064 1.25488C10.1436 1.27321 10.1814 1.29166 10.2197 1.31055C11.3015 1.84888 12.2931 2.55438 13.1924 3.35938C13.2249 3.38803 13.2576 3.41677 13.291 3.44629C13.5731 3.69701 13.8437 3.95768 14.1104 4.22461C14.1794 4.29364 14.2489 4.36299 14.3184 4.43164C14.6042 4.71623 14.8645 5.01251 15.1152 5.3291C15.1578 5.3801 15.2011 5.43083 15.2441 5.48145C17.7358 8.46335 18.8226 12.3638 19.2295 16.1631C19.2347 16.2071 19.2398 16.2515 19.2451 16.2969C19.3641 17.3209 19.3277 18.3577 19.3193 19.3867C19.3463 19.3924 19.3736 19.3984 19.4014 19.4043C19.4548 19.4158 19.4551 19.4159 19.5098 19.4277C19.545 19.4353 19.5808 19.4424 19.6172 19.4502C19.774 19.4887 19.9182 19.5476 20.0654 19.6133C20.0959 19.6268 20.1268 19.6404 20.1582 19.6543C21.0006 20.0409 21.7769 20.6836 22.3604 21.4014C22.3457 21.4308 22.3306 21.46 22.3154 21.4902C22.2732 21.4622 22.231 21.4342 22.1875 21.4053C20.7401 20.4598 19.1002 20.16 17.4072 20.5127C15.552 20.924 13.8511 21.7596 12.1533 22.5879C10.7041 23.2948 9.22782 23.9589 7.64746 24.3115C7.61377 24.3194 7.57964 24.3268 7.54492 24.335C6.6217 24.5448 5.43055 24.5759 4.5166 24.3115C4.48041 24.3012 4.4445 24.2899 4.40723 24.2793C3.26769 23.9451 2.32623 23.3756 1.45117 22.5752C1.34623 22.4797 1.23903 22.3869 1.13184 22.2939C0.945796 22.1281 0.78625 21.9492 0.625977 21.7588C0.580968 21.7075 0.535397 21.6566 0.490234 21.6055C0.441314 21.5496 0.392656 21.4934 0.34375 21.4375C0.32013 21.4109 0.296797 21.3839 0.272461 21.3564C0.148681 21.2137 0.0570748 21.0921 0 20.9082C0.121912 20.9662 0.229931 21.0307 0.338867 21.1104C0.369125 21.1322 0.399489 21.1542 0.430664 21.1768C0.462823 21.2001 0.495187 21.2231 0.52832 21.2471C1.02109 21.5988 1.53126 21.9004 2.06543 22.1846C2.10178 22.204 2.13833 22.2232 2.17578 22.2432C2.22724 22.2701 2.22777 22.2704 2.28027 22.2979C2.31057 22.3138 2.34086 22.3303 2.37207 22.3467C2.46015 22.3866 2.54431 22.4103 2.63867 22.4307C5.27025 19.4548 6.46178 15.1204 8.3623 7.74707H8.45215C9.11644 8.92152 9.5234 10.173 9.7627 11.499C9.77256 11.5532 9.77314 11.5531 9.7832 11.6084C9.92203 12.445 9.9452 13.2886 9.94238 14.1348C9.9423 14.1857 9.94149 14.2366 9.94141 14.2891C9.93939 15.0412 9.92076 15.7785 9.79395 16.5215C9.78246 16.5919 9.78224 16.5921 9.77051 16.6641C9.39071 18.9475 8.55338 21.4139 6.8418 23.0576C7.2047 23.049 7.55046 22.9827 7.9043 22.9062C7.94812 22.8969 7.99197 22.8876 8.03711 22.8779C8.16103 22.8504 8.28426 22.8205 8.40723 22.7891C8.44156 22.7813 8.47635 22.7737 8.51172 22.7656C8.64851 22.7269 8.73666 22.6922 8.82422 22.5771C8.8784 22.4754 8.92187 22.373 8.96387 22.2656C8.98031 22.2263 8.99674 22.187 9.01367 22.1465C9.06662 22.0181 9.11763 21.8882 9.16797 21.7588C9.18481 21.7163 9.2014 21.6737 9.21875 21.6299C10.7832 17.6658 11.301 12.9923 9.59082 8.97363C9.0117 7.67889 8.3364 6.58231 6.97656 6.03418C6.30101 5.77913 5.63511 5.67176 4.91504 5.67578C4.81346 5.67626 4.71193 5.67537 4.61035 5.6748C4.2434 5.67451 3.89363 5.69562 3.53125 5.75781C3.11299 5.81652 2.81655 5.69493 2.4707 5.47461C2.21942 5.22301 2.17521 4.99519 2.17188 4.64941C2.17142 4.61855 2.17039 4.58746 2.16992 4.55566C2.1742 4.30524 2.2368 4.16486 2.41113 3.98926C2.44459 3.96055 2.47823 3.93192 2.5127 3.90234C2.72078 3.71989 2.92371 3.53272 3.125 3.34277C3.37992 3.10274 3.63617 2.86426 3.89453 2.62793C4.03237 2.50178 4.17035 2.37579 4.30762 2.24902C4.33148 2.22701 4.35529 2.20432 4.37988 2.18164C4.51217 2.05941 4.64354 1.93625 4.77441 1.8125C4.94068 1.65537 5.10888 1.4995 5.27734 1.34473C5.32011 1.30526 5.36316 1.26528 5.40723 1.22461ZM17.8242 15.3604C17.5028 16.857 16.9847 18.2025 16.042 19.4199C15.9648 19.5152 15.9649 19.5154 15.9209 19.6104C15.9662 19.599 16.0119 19.5879 16.0586 19.5762C16.0879 19.5689 16.1172 19.5612 16.1475 19.5537C16.2126 19.5373 16.2778 19.5202 16.3428 19.5029C16.4938 19.4633 16.6339 19.4316 16.79 19.418C16.9459 19.4014 17.0396 19.3809 17.1729 19.2969C17.3498 19.0602 17.4365 18.768 17.5303 18.4912C17.543 18.4554 17.5562 18.4197 17.5693 18.3828C17.6562 18.1382 17.7319 17.8914 17.7988 17.6406C17.8068 17.6108 17.815 17.5806 17.8232 17.5498C18.0042 16.8367 18.0213 15.9892 17.8887 15.2676H17.8438C17.8373 15.2981 17.8309 15.3289 17.8242 15.3604ZM43.3242 7.1543C45.9004 4.75754 50.2379 4.74844 53.0459 6.72363C54.1334 7.58547 54.8674 8.92256 55.0674 10.292C55.2003 11.822 55.2376 13.4496 54.4502 14.8213C54.336 15.0449 54.3355 15.0449 54.3721 15.2871C54.5376 15.6778 54.8357 15.9373 55.1279 16.2383C55.3059 16.4761 55.3057 16.4766 55.3057 16.9521C55.0206 17.3388 54.6658 17.6631 54.3242 18C54.1855 18.1429 54.1854 18.1432 54.0439 18.2891L53.5234 18.8096C53.2839 18.9741 53.2838 18.9746 53.0332 18.958C52.6852 18.7996 52.4906 18.5403 52.2432 18.2529C52.1481 18.1437 52.053 18.0345 51.9551 17.9219C51.8833 17.8374 51.8112 17.7531 51.7373 17.666C51.5853 17.7003 51.433 17.7342 51.2764 17.7695C51.1774 17.791 51.0785 17.8129 50.9766 17.835C50.7844 17.8777 50.5929 17.9232 50.4023 17.9727C48.4007 18.4542 46.2393 18.1623 44.4512 17.1572C43.0687 16.3061 42.2361 15.0403 41.8486 13.4688C41.7291 12.8917 41.706 12.3292 41.71 11.7412C41.7106 11.6371 41.7112 11.533 41.7119 11.4258C41.7418 9.82247 42.2158 8.35158 43.3242 7.1543ZM60.0811 7.14648C60.0864 7.54221 60.092 7.93826 60.0977 8.33398C60.1036 8.74999 60.1087 9.166 60.1133 9.58203C60.1186 10.0608 60.1257 10.5398 60.1328 11.0186C60.1342 11.1659 60.1363 11.314 60.1377 11.4658C60.1485 13.1349 60.1477 13.1353 60.8955 14.5732C61.528 15.0476 62.2795 15.0349 63.0371 14.9297C63.5826 14.726 63.9035 14.4666 64.2188 13.9785C64.4213 13.4066 64.4796 12.8878 64.4883 12.2822C64.4907 12.1348 64.4937 11.9869 64.4961 11.835C64.4981 11.6753 64.5 11.5152 64.502 11.3555C64.5044 11.1911 64.5062 11.0267 64.5088 10.8623C64.5153 10.4308 64.5216 9.99889 64.5273 9.56738C64.5333 9.12662 64.5403 8.68587 64.5469 8.24512C64.5597 7.38119 64.5712 6.51726 64.583 5.65332H68.0322C68.0513 7.60916 68.0515 7.60936 68.0557 8.45215C68.0585 9.02424 68.0618 9.59689 68.0684 10.1689C68.0736 10.6308 68.0759 11.0929 68.0771 11.5547C68.078 11.7295 68.0804 11.9043 68.083 12.0791C68.1056 13.6674 67.8597 15.1999 66.8428 16.4766C65.5886 17.7284 64.0794 18.1341 62.3457 18.1787C60.7259 18.1503 59.099 17.7709 57.9229 16.5947C57.0054 15.4559 56.5978 14.1538 56.6006 12.7012C56.6006 12.6245 56.6006 12.5477 56.6006 12.4688C56.6007 12.2178 56.6016 11.9668 56.6025 11.7158C56.6028 11.541 56.6034 11.3662 56.6035 11.1914C56.604 10.7327 56.6051 10.2732 56.6064 9.81445C56.6079 9.26335 56.6077 8.71224 56.6084 8.16113C56.6095 7.3253 56.6122 6.48915 56.6143 5.65332H60.0635C60.0693 6.14594 60.0751 6.63894 60.0811 7.14648ZM89.1592 5.59961C90.5468 5.59904 91.8588 5.86379 92.8896 6.84277C92.9882 6.93623 92.9885 6.93606 93.0889 7.03125C93.9586 7.94851 94.1609 8.97337 94.1514 10.2012C94.1078 11.1908 93.8151 11.9928 93.0967 12.6963C92.694 13.0218 92.2868 13.2808 91.8193 13.5029C91.9768 13.8387 92.1538 14.1242 92.3809 14.417C92.4445 14.4994 92.5087 14.582 92.5742 14.667C92.6416 14.7537 92.7089 14.8404 92.7783 14.9297C92.9177 15.111 93.0569 15.2932 93.1963 15.4746C93.4438 15.7955 93.6931 16.1149 93.9434 16.4336C94.0406 16.5591 94.1382 16.685 94.2354 16.8105C94.3207 16.9192 94.4062 17.0286 94.4941 17.1406C94.6737 17.4279 94.6738 17.4279 94.6738 17.9033C93.7123 17.9747 92.7523 18.0191 91.7881 17.9971C91.7073 17.9974 91.6262 17.9977 91.543 17.998C90.8629 17.9732 90.5862 17.7425 90.1318 17.2715C90.0071 17.0568 89.9033 16.8418 89.8018 16.6152C89.5524 16.0936 89.2228 15.6206 88.9053 15.1387C88.8459 15.038 88.7867 14.9367 88.7256 14.833C88.666 14.7393 88.6063 14.6454 88.5449 14.5488C88.494 14.4647 88.4431 14.3806 88.3906 14.2939C88.0278 13.9823 88.0277 13.9822 86.9434 13.9785V17.9033H83.4941V5.65332C84.6004 5.64351 85.7069 5.63316 86.8467 5.62305C87.1927 5.61872 87.539 5.61481 87.8955 5.61035C88.1744 5.60896 88.4535 5.60744 88.7324 5.60645C88.8733 5.60401 89.0141 5.60211 89.1592 5.59961ZM33.8564 5.6416C33.975 5.64185 33.9757 5.64232 34.0967 5.64258C34.3498 5.64325 34.6033 5.644 34.8564 5.64551C35.0277 5.6461 35.1989 5.64697 35.3701 5.64746C35.791 5.64877 36.212 5.65088 36.6328 5.65332C37.6558 7.90005 38.6592 10.1552 39.6484 12.417C40.0677 13.3751 40.489 14.3327 40.9189 15.2861C40.9557 15.3677 40.9924 15.4492 41.0303 15.5332C41.2008 15.9112 41.3719 16.2896 41.5439 16.667C41.6026 16.7965 41.6613 16.9261 41.7217 17.0596C41.7728 17.1717 41.8243 17.2839 41.877 17.3994C41.9848 17.6655 41.9854 17.6659 41.9854 17.9033H38.1787C38.061 17.614 37.9435 17.3244 37.8223 17.0264C37.785 16.9354 37.7473 16.8447 37.709 16.751C37.4651 16.1462 37.4648 16.1461 37.4648 15.8818H32.1133C31.9955 16.2743 31.8772 16.6669 31.7559 17.0713C31.6382 17.3458 31.5206 17.6205 31.3994 17.9033H27.7129C27.8466 17.1011 27.8458 17.1007 28.0107 16.7402C28.0475 16.6587 28.0852 16.5772 28.123 16.4932C28.1631 16.4065 28.2028 16.3197 28.2441 16.2305C28.2863 16.1375 28.3286 16.044 28.3721 15.9482C28.5106 15.6432 28.6504 15.3387 28.79 15.0342C28.9363 14.7129 29.0826 14.3917 29.2285 14.0703C29.3283 13.8506 29.4284 13.6307 29.5283 13.4111C29.9817 12.4148 30.4277 11.4149 30.8711 10.4141C31.066 9.97423 31.2608 9.53439 31.4561 9.09473C31.4923 9.01302 31.529 8.93086 31.5664 8.84668C31.8841 8.13121 32.2016 7.41565 32.5215 6.70117C32.5643 6.6051 32.6073 6.50913 32.6514 6.41016C32.9898 5.65638 32.9901 5.65608 33.4053 5.63965C33.554 5.64027 33.7032 5.64096 33.8564 5.6416ZM74.5332 5.6416C74.6517 5.64185 74.6517 5.64232 74.7725 5.64258C75.0257 5.64325 75.279 5.644 75.5322 5.64551C75.7036 5.6461 75.8755 5.64697 76.0469 5.64746C76.4676 5.64877 76.8888 5.65088 77.3096 5.65332C79.5315 10.5359 79.531 10.5364 80.5674 12.9512C80.8899 13.7014 81.2181 14.449 81.5537 15.1934C81.59 15.2738 81.6257 15.3546 81.6631 15.4375C81.8381 15.8254 82.0139 16.2134 82.1904 16.6006C82.283 16.805 82.2835 16.8051 82.3779 17.0137C82.4602 17.1942 82.4599 17.1945 82.5439 17.3789C82.6613 17.6657 82.6611 17.6659 82.6611 17.9033H78.8555C78.7378 17.614 78.6193 17.3245 78.498 17.0264C78.4609 16.9355 78.4241 16.8445 78.3857 16.751C78.1418 16.1462 78.1416 16.1461 78.1416 15.8818H72.7891C72.6713 16.2743 72.5539 16.6669 72.4326 17.0713C72.315 17.3458 72.1974 17.6205 72.0762 17.9033H68.3887C68.5224 17.101 68.5226 17.1008 68.6875 16.7402C68.7243 16.6587 68.7609 16.5772 68.7988 16.4932C68.839 16.4064 68.8795 16.3198 68.9209 16.2305C68.9631 16.1375 69.0054 16.044 69.0488 15.9482C69.1874 15.6433 69.3271 15.3386 69.4668 15.0342C69.613 14.7129 69.7594 14.3917 69.9053 14.0703C70.0051 13.8506 70.1051 13.6308 70.2051 13.4111C70.6584 12.4148 71.1035 11.4148 71.5469 10.4141C71.7418 9.97419 71.9376 9.53443 72.1328 9.09473C72.1691 9.01302 72.2048 8.93086 72.2422 8.84668C72.5599 8.13112 72.8783 7.41574 73.1982 6.70117C73.241 6.60512 73.2841 6.50912 73.3281 6.41016C73.6666 5.65623 73.6666 5.6561 74.082 5.63965C74.2309 5.64027 74.3798 5.64096 74.5332 5.6416ZM99.5508 17.9033H96.1016V5.65332H99.5508V17.9033ZM49.7451 8.56738C48.3934 8.10869 46.7747 8.36383 45.8701 9.54883C45.2283 10.4986 45.0638 11.4822 45.2432 12.6084C45.4653 13.5339 45.9739 14.1952 46.7461 14.7461C47.591 15.1952 48.6128 15.1789 49.5332 14.9893C50.3756 14.7079 50.845 14.2619 51.2393 13.4961C51.7132 12.5007 51.7769 11.5048 51.4326 10.4482C51.0793 9.5866 50.6046 8.9589 49.7451 8.56738ZM34.1709 10.6924C34.1077 10.8457 34.0441 10.9992 33.9805 11.1523C33.889 11.3726 33.7986 11.5938 33.708 11.8145C33.6533 11.9469 33.5984 12.0793 33.542 12.2158C33.4019 12.5477 33.4018 12.5482 33.4219 12.9082H36.1572C36.0611 12.4277 35.9482 12.0538 35.7666 11.6055C35.7133 11.4732 35.6594 11.3403 35.6045 11.2041C35.5488 11.0674 35.4929 10.9309 35.4355 10.79C35.3794 10.6509 35.3235 10.5115 35.2656 10.3682C35.1271 10.0253 34.9881 9.68229 34.8486 9.33984H34.7295C34.5424 9.79022 34.3564 10.2414 34.1709 10.6924ZM74.8477 10.6924C74.7845 10.8457 74.7209 10.9993 74.6572 11.1523C74.5657 11.3726 74.4744 11.5938 74.3838 11.8145C74.3291 11.9469 74.2742 12.0793 74.2178 12.2158C74.0776 12.5477 74.0776 12.5482 74.0977 12.9082H76.833C76.7369 12.4277 76.624 12.0539 76.4424 11.6055C76.3891 11.4732 76.3361 11.3403 76.2812 11.2041C76.2256 11.0674 76.1697 10.9309 76.1123 10.79C76.0561 10.6509 76.0003 10.5115 75.9424 10.3682C75.8039 10.0253 75.6648 9.68231 75.5254 9.33984H75.4062C75.2192 9.79018 75.0331 10.2414 74.8477 10.6924ZM88.7412 8.47656C88.6091 8.47955 88.4769 8.48227 88.3408 8.48535C88.2068 8.48696 88.0726 8.48858 87.9346 8.49023C87.6042 8.49443 87.2737 8.50099 86.9434 8.50781V11.2432C87.4266 11.2592 87.9092 11.271 88.3926 11.2803C88.5294 11.2853 88.6666 11.2898 88.8076 11.2949C89.4992 11.3264 89.4997 11.3266 90.1406 11.1162C90.5125 10.7517 90.6266 10.4692 90.6602 9.95703C90.6535 9.49905 90.5653 9.22915 90.2734 8.86426C89.8916 8.51248 89.641 8.46447 89.127 8.47266C88.9997 8.47381 88.8723 8.47538 88.7412 8.47656ZM6.57422 2.73242C6.39298 2.70823 6.32602 2.71768 6.17676 2.82812C6.07342 2.94857 6.07317 2.94875 6.05664 3.09082C6.08854 3.26114 6.13178 3.33336 6.26074 3.44922C6.44461 3.50611 6.53038 3.51639 6.70215 3.42676C6.82618 3.28069 6.84514 3.19189 6.8418 3.00098C6.76296 2.87582 6.70677 2.79881 6.57422 2.73242Z" fill="#202224" style="fill:#202224;fill:color(display-p3 0.1255 0.1333 0.1412);fill-opacity:1;"/>
</svg>
