<svg width="106" height="24" viewBox="0 0 106 24" fill="none" xmlns="http://www.w3.org/2000/svg">
<path d="M5.40723 0.724628C6.793 -0.48702 8.64824 0.0313981 10.1064 0.754902C10.1436 0.773232 10.1814 0.79168 10.2197 0.810566C11.3015 1.3489 12.2931 2.0544 13.1924 2.85939C13.2249 2.88805 13.2576 2.91679 13.291 2.94631C13.5731 3.19703 13.8438 3.4577 14.1104 3.72463C14.1794 3.79366 14.2489 3.863 14.3184 3.93166C14.6042 4.21625 14.8645 4.51253 15.1152 4.82912C15.1578 4.88012 15.2011 4.93085 15.2441 4.98146C17.7358 7.96337 18.8226 11.8638 19.2295 15.6631C19.2347 15.7071 19.2398 15.7515 19.2451 15.7969C19.3641 16.8209 19.3277 17.8577 19.3193 18.8867C19.3463 18.8925 19.3736 18.8984 19.4014 18.9043C19.4548 18.9159 19.4551 18.9159 19.5098 18.9278C19.545 18.9353 19.5809 18.9424 19.6172 18.9502C19.774 18.9887 19.9182 19.0476 20.0654 19.1133C20.0959 19.1268 20.1268 19.1404 20.1582 19.1543C21.0006 19.5409 21.7769 20.1836 22.3604 20.9014C22.3457 20.9308 22.3306 20.96 22.3154 20.9903C22.2732 20.9622 22.231 20.9342 22.1875 20.9053C20.7401 19.9598 19.1002 19.6601 17.4072 20.0127C15.552 20.424 13.8511 21.2596 12.1533 22.0879C10.7041 22.7949 9.22782 23.4589 7.64746 23.8115C7.61377 23.8194 7.57964 23.8268 7.54492 23.835C6.6217 24.0448 5.43055 24.0759 4.5166 23.8115C4.48041 23.8012 4.4445 23.7899 4.40723 23.7793C3.26769 23.4452 2.32623 22.8757 1.45117 22.0752C1.34623 21.9797 1.23903 21.8869 1.13184 21.794C0.945796 21.6282 0.78625 21.4492 0.625977 21.2588C0.580967 21.2075 0.535397 21.1567 0.490234 21.1055C0.441314 21.0496 0.392656 20.9934 0.34375 20.9375C0.32013 20.9109 0.296797 20.8839 0.272461 20.8565C0.14868 20.7138 0.0570748 20.5921 0 20.4082C0.121912 20.4662 0.229931 20.5308 0.338867 20.6104C0.369125 20.6322 0.399489 20.6542 0.430664 20.6768C0.462823 20.7001 0.495187 20.7231 0.52832 20.7471C1.02109 21.0988 1.53126 21.4004 2.06543 21.6846C2.10178 21.704 2.13833 21.7232 2.17578 21.7432C2.22724 21.7701 2.22777 21.7704 2.28027 21.7979C2.31057 21.8138 2.34086 21.8303 2.37207 21.8467C2.46015 21.8866 2.54431 21.9103 2.63867 21.9307C5.27025 18.9548 6.46178 14.6204 8.3623 7.24709H8.45215C9.11644 8.42153 9.5234 9.67303 9.7627 10.999C9.77256 11.0532 9.77314 11.0532 9.7832 11.1084C9.92203 11.945 9.9452 12.7887 9.94238 13.6348C9.9423 13.6857 9.94149 13.7366 9.94141 13.7891C9.93939 14.5412 9.92076 15.2785 9.79395 16.0215C9.78246 16.0919 9.78224 16.0922 9.77051 16.1641C9.39071 18.4475 8.55338 20.9139 6.8418 22.5576C7.2047 22.549 7.55046 22.4827 7.9043 22.4063C7.94812 22.3969 7.99197 22.3876 8.03711 22.3779C8.16103 22.3504 8.28426 22.3206 8.40723 22.2891C8.44156 22.2813 8.47635 22.2737 8.51172 22.2656C8.64851 22.2269 8.73666 22.1922 8.82422 22.0772C8.8784 21.9754 8.92187 21.8731 8.96387 21.7656C8.98031 21.7263 8.99674 21.687 9.01367 21.6465C9.06662 21.5182 9.11764 21.3882 9.16797 21.2588C9.18481 21.2163 9.2014 21.1737 9.21875 21.1299C10.7832 17.1658 11.301 12.4923 9.59082 8.47365C9.0117 7.17891 8.3364 6.08232 6.97656 5.5342C6.30101 5.27915 5.63511 5.17178 4.91504 5.1758C4.81346 5.17628 4.71193 5.17539 4.61035 5.17482C4.2434 5.17453 3.89363 5.19564 3.53125 5.25783C3.11299 5.31654 2.81655 5.19495 2.4707 4.97463C2.21942 4.72303 2.17521 4.49521 2.17188 4.14943C2.17142 4.11857 2.17039 4.08748 2.16992 4.05568C2.1742 3.80526 2.2368 3.66488 2.41113 3.48928C2.44459 3.46057 2.47823 3.43194 2.5127 3.40236C2.72078 3.21991 2.92371 3.03274 3.125 2.84279C3.37992 2.60276 3.63617 2.36428 3.89453 2.12795C4.03237 2.0018 4.17035 1.87581 4.30762 1.74904C4.33148 1.72703 4.35529 1.70434 4.37988 1.68166C4.51217 1.55943 4.64354 1.43627 4.77441 1.31252C4.94068 1.15538 5.10888 0.999519 5.27734 0.844745C5.32011 0.805274 5.36316 0.765295 5.40723 0.724628ZM79.5693 21.0908C80.0206 20.5042 80.6654 20.479 81.3525 20.6153C81.6233 20.7892 81.7508 20.948 81.9473 21.21C81.7122 21.3275 81.7118 21.3272 81.4717 21.4473C81.3541 21.3689 81.2364 21.2907 81.1152 21.21C80.8706 21.1814 80.8704 21.1806 80.6172 21.1944C80.4677 21.1993 80.3181 21.2049 80.1641 21.21C80.2033 21.3668 80.2418 21.524 80.2822 21.6856C80.3711 21.7058 80.4602 21.7263 80.5518 21.7471C80.6689 21.7759 80.7865 21.8043 80.9072 21.834C81.0808 21.8753 81.0808 21.8758 81.2578 21.918C81.6353 22.0593 81.8204 22.2001 82.0664 22.5176C82.059 22.9409 82.0377 23.2275 81.7842 23.5733C81.3285 23.8887 80.8148 23.8825 80.2822 23.8262C79.8739 23.6777 79.8736 23.6775 79.5693 23.4697C79.4653 23.2098 79.465 23.2092 79.4502 22.9942C79.6072 22.9157 79.764 22.8368 79.9258 22.7559C79.9724 22.8123 80.0194 22.8687 80.0674 22.9268C80.3402 23.1619 80.5195 23.2053 80.877 23.2315C81.1465 23.1562 81.1471 23.1563 81.3525 22.9942L81.4717 22.6367C81.3744 22.6152 81.277 22.5935 81.1768 22.5713C81.0486 22.5414 80.9201 22.5113 80.7881 22.4805C80.6611 22.4515 80.5341 22.4225 80.4033 22.3926C80.048 22.2808 79.8345 22.1824 79.5693 21.9229C79.5025 21.5144 79.5025 21.5144 79.5693 21.0908ZM100.502 21.0908C100.953 20.504 101.599 20.4789 102.286 20.6153C102.557 20.7891 102.684 20.948 102.881 21.21C102.645 21.3277 102.645 21.3273 102.405 21.4473C102.288 21.3688 102.169 21.2909 102.048 21.21C101.803 21.1814 101.803 21.1806 101.55 21.1944C101.4 21.1993 101.251 21.2049 101.097 21.21C101.136 21.3669 101.175 21.5239 101.216 21.6856C101.305 21.7058 101.394 21.7263 101.485 21.7471C101.602 21.7759 101.719 21.8044 101.84 21.834C102.014 21.8754 102.014 21.8758 102.191 21.918C102.569 22.0593 102.754 22.2 103 22.5176C102.993 22.9409 102.97 23.2274 102.717 23.5733C102.261 23.8886 101.748 23.8824 101.216 23.8262C100.807 23.6775 100.807 23.6778 100.502 23.4697C100.398 23.2098 100.398 23.2093 100.383 22.9942C100.54 22.9157 100.697 22.8367 100.858 22.7559C100.905 22.8123 100.952 22.8686 101 22.9268C101.273 23.1621 101.453 23.2053 101.811 23.2315C102.08 23.1562 102.08 23.1565 102.286 22.9942L102.405 22.6367C102.308 22.6151 102.21 22.5936 102.109 22.5713C101.981 22.5414 101.853 22.5113 101.721 22.4805C101.594 22.4515 101.467 22.4224 101.336 22.3926C100.981 22.2808 100.767 22.1823 100.502 21.9229C100.435 21.5144 100.435 21.5143 100.502 21.0908ZM87.3535 20.5801C87.9187 20.6267 88.2138 20.8154 88.6084 21.21C88.6495 21.568 88.6764 21.8156 88.6084 22.1612C88.3111 22.5179 88.3109 22.5181 88.0137 22.7559C88.0652 22.8146 88.1169 22.8732 88.1699 22.9336C88.2361 23.0098 88.3019 23.0866 88.3701 23.1651C88.4363 23.2409 88.5031 23.3164 88.5713 23.3946C88.7274 23.5883 88.7275 23.5891 88.7275 23.708C88.4154 23.7601 88.415 23.76 88.0137 23.708C87.8102 23.5091 87.6463 23.2943 87.4736 23.0684C87.3015 22.8439 87.301 22.844 86.958 22.7637C86.8746 22.7612 86.791 22.7584 86.7051 22.7559V23.708H86.1104V20.6153C86.3728 20.6079 86.6358 20.6004 86.9062 20.5928C87.1275 20.5866 87.1277 20.5864 87.3535 20.5801ZM76.5957 21.21H75.5254V23.7071H75.0498V21.21H73.9785V20.6153H76.5957V21.21ZM79.0938 21.21H77.4287V21.9238H78.9746V22.5186H77.4287V23.2315H79.0938V23.7071H76.834V20.6153H79.0938V21.21ZM84.8027 21.21H83.7324V23.7071H83.2559V21.21H82.1855V20.6153H84.8027V21.21ZM91.4629 21.21H89.7979V21.9238H91.3438V22.5186H89.7979V23.2315H91.4629V23.7071H89.2031V20.6153H91.4629V21.21ZM92.5332 23.2315H94.0791V23.7071H91.9385V20.6153H92.5332V23.2315ZM96.8145 21.21H95.1494V21.9238H96.6963V22.5186H95.1494V23.2315H96.8145V23.7071H94.5547V20.6153H96.8145V21.21ZM98.8369 20.6153C99.8793 22.6544 99.8792 22.6549 100.264 23.7071H99.5508C99.5278 23.6306 99.5041 23.5544 99.4805 23.4756C99.3257 23.1913 99.3261 23.1908 98.9512 23.1592C98.7401 23.1509 98.7398 23.151 98.5244 23.1426C98.3833 23.1359 98.2421 23.129 98.0967 23.1221C97.9334 23.1175 97.933 23.117 97.7666 23.1123C97.6489 23.4066 97.6483 23.407 97.5283 23.7071H96.9336C97.138 23.0311 97.429 22.4008 97.7217 21.7598C97.7717 21.6496 97.8216 21.5393 97.873 21.4258C97.9957 21.1555 98.1189 20.8853 98.2422 20.6153H98.8369ZM105.616 21.21H103.951V21.9238H105.497V22.5186H103.951V23.2315H105.616V23.7071H103.356V20.6153H105.616V21.21ZM98.0039 22.6367H99.0752C99.0218 22.4606 98.9665 22.285 98.9111 22.1094C98.8656 21.9625 98.8657 21.9623 98.8193 21.8125C98.7408 21.5457 98.7409 21.545 98.4805 21.4473C98.3235 21.8397 98.1656 22.2324 98.0039 22.6367ZM86.9355 21.2061C86.8217 21.2081 86.8212 21.2079 86.7051 21.21V22.1612C86.8785 22.1676 87.0521 22.172 87.2256 22.1758C87.3705 22.1799 87.3707 22.1804 87.5186 22.1846C87.801 22.1868 87.8014 22.1869 88.0137 21.9238C87.9792 21.5305 87.9788 21.5303 87.7754 21.21C87.5949 21.2015 87.4141 21.1996 87.2334 21.2022C87.0861 21.2038 87.0857 21.2044 86.9355 21.2061ZM17.8242 14.8604C17.5028 16.3571 16.9847 17.7025 16.042 18.9199C15.9648 19.0153 15.9649 19.0154 15.9209 19.1104C15.9662 19.099 16.0119 19.0879 16.0586 19.0762C16.0879 19.0689 16.1172 19.0612 16.1475 19.0537C16.2126 19.0373 16.2778 19.0202 16.3428 19.0029C16.4938 18.9633 16.6339 18.9316 16.79 18.918C16.9459 18.9014 17.0396 18.8809 17.1729 18.7969C17.3498 18.5602 17.4365 18.2681 17.5303 17.9912C17.543 17.9554 17.5562 17.9197 17.5693 17.8828C17.6562 17.6382 17.7319 17.3914 17.7988 17.1406C17.8068 17.1108 17.815 17.0806 17.8232 17.0498C18.0042 16.3367 18.0213 15.4892 17.8887 14.7676H17.8438C17.8373 14.7981 17.8309 14.8289 17.8242 14.8604ZM43.3242 6.65432C45.9004 4.25755 50.2379 4.24846 53.0459 6.22365C54.1334 7.08548 54.8674 8.42258 55.0674 9.79201C55.2003 11.322 55.2376 12.9497 54.4502 14.3213C54.336 14.5449 54.3355 14.5449 54.3721 14.7871C54.5376 15.1778 54.8357 15.4373 55.1279 15.7383C55.3059 15.9761 55.3057 15.9766 55.3057 16.4522C55.0206 16.8388 54.6658 17.1631 54.3242 17.5C54.1855 17.6429 54.1854 17.6433 54.0439 17.7891L53.5234 18.3096C53.2839 18.4741 53.2838 18.4746 53.0332 18.458C52.6852 18.2997 52.4906 18.0404 52.2432 17.7529C52.1481 17.6437 52.053 17.5345 51.9551 17.4219C51.8833 17.3374 51.8112 17.2531 51.7373 17.166C51.5853 17.2004 51.433 17.2342 51.2764 17.2696C51.1774 17.291 51.0785 17.3129 50.9766 17.335C50.7844 17.3777 50.5929 17.4232 50.4023 17.4727C48.4007 17.9542 46.2393 17.6623 44.4512 16.6572C43.0687 15.8062 42.2361 14.5403 41.8486 12.9688C41.7291 12.3918 41.706 11.8292 41.71 11.2412C41.7106 11.1371 41.7112 11.033 41.7119 10.9258C41.7418 9.32249 42.2158 7.8516 43.3242 6.65432ZM60.0811 6.6465C60.0864 7.04223 60.092 7.43828 60.0977 7.834C60.1036 8.25001 60.1087 8.66602 60.1133 9.08205C60.1186 9.5608 60.1257 10.0398 60.1328 10.5186C60.1342 10.6659 60.1363 10.814 60.1377 10.9658C60.1485 12.635 60.1477 12.6353 60.8955 14.0733C61.528 14.5477 62.2795 14.535 63.0371 14.4297C63.5826 14.2261 63.9035 13.9666 64.2188 13.4785C64.4213 12.9067 64.4796 12.3878 64.4883 11.7822C64.4907 11.6348 64.4937 11.4869 64.4961 11.335C64.4981 11.1753 64.5 11.0152 64.502 10.8555C64.5044 10.6911 64.5062 10.5267 64.5088 10.3623C64.5153 9.93083 64.5216 9.49891 64.5273 9.0674C64.5333 8.62664 64.5403 8.18589 64.5469 7.74514C64.5597 6.88121 64.5712 6.01728 64.583 5.15334H68.0322C68.0513 7.10918 68.0515 7.10938 68.0557 7.95217C68.0585 8.52425 68.0619 9.0969 68.0684 9.66896C68.0736 10.1308 68.0759 10.5929 68.0771 11.0547C68.078 11.2295 68.0804 11.4043 68.083 11.5791C68.1056 13.1674 67.8597 14.7 66.8428 15.9766C65.5886 17.2284 64.0794 17.6342 62.3457 17.6787C60.7259 17.6503 59.099 17.2709 57.9229 16.0947C57.0054 14.9559 56.5978 13.6538 56.6006 12.2012C56.6006 12.1245 56.6006 12.0478 56.6006 11.9688C56.6007 11.7178 56.6016 11.4668 56.6025 11.2158C56.6028 11.041 56.6034 10.8662 56.6035 10.6914C56.604 10.2327 56.6051 9.77318 56.6064 9.31447C56.6079 8.76337 56.6077 8.21226 56.6084 7.66115C56.6095 6.82532 56.6122 5.98917 56.6143 5.15334H60.0635C60.0693 5.64596 60.0751 6.13895 60.0811 6.6465ZM89.1592 5.09963C90.5468 5.09906 91.8588 5.36381 92.8896 6.34279C92.9882 6.43625 92.9885 6.43608 93.0889 6.53127C93.9586 7.44853 94.1609 8.47338 94.1514 9.70119C94.1078 10.6908 93.8151 11.4928 93.0967 12.1963C92.694 12.5218 92.2868 12.7808 91.8193 13.0029C91.9768 13.3387 92.1538 13.6242 92.3809 13.917C92.4445 13.9995 92.5087 14.0821 92.5742 14.167C92.6416 14.2537 92.7089 14.3404 92.7783 14.4297C92.9177 14.611 93.0569 14.7933 93.1963 14.9746C93.4438 15.2955 93.6931 15.6149 93.9434 15.9336C94.0406 16.0591 94.1382 16.185 94.2354 16.3106C94.3207 16.4193 94.4062 16.5286 94.4941 16.6406C94.6737 16.9279 94.6738 16.928 94.6738 17.4033C93.7123 17.4747 92.7523 17.5191 91.7881 17.4971C91.7073 17.4974 91.6262 17.4977 91.543 17.4981C90.8629 17.4732 90.5862 17.2425 90.1318 16.7715C90.0071 16.5569 89.9033 16.3418 89.8018 16.1153C89.5524 15.5936 89.2228 15.1206 88.9053 14.6387C88.8459 14.5381 88.7868 14.4367 88.7256 14.333C88.666 14.2393 88.6063 14.1454 88.5449 14.0488C88.494 13.9647 88.4431 13.8806 88.3906 13.794C88.0278 13.4823 88.0277 13.4822 86.9434 13.4785V17.4033H83.4941V5.15334C84.6004 5.14353 85.7069 5.13317 86.8467 5.12307C87.1927 5.11874 87.539 5.11483 87.8955 5.11037C88.1744 5.10898 88.4535 5.10746 88.7324 5.10646C88.8733 5.10403 89.0141 5.10213 89.1592 5.09963ZM33.8564 5.14162C33.975 5.14187 33.9757 5.14234 34.0967 5.1426C34.3498 5.14327 34.6033 5.14402 34.8564 5.14553C35.0277 5.14612 35.1989 5.14699 35.3701 5.14748C35.791 5.14879 36.212 5.1509 36.6328 5.15334C37.6558 7.40007 38.6592 9.65522 39.6484 11.917C40.0677 12.8751 40.489 13.8328 40.9189 14.7862C40.9557 14.8677 40.9924 14.9492 41.0303 15.0332C41.2008 15.4112 41.3719 15.7897 41.5439 16.167C41.6026 16.2966 41.6613 16.4261 41.7217 16.5596C41.7728 16.6717 41.8243 16.7839 41.877 16.8994C41.9848 17.1655 41.9854 17.1659 41.9854 17.4033H38.1787C38.061 17.114 37.9435 16.8245 37.8223 16.5264C37.785 16.4355 37.7473 16.3447 37.709 16.251C37.4651 15.6462 37.4648 15.6462 37.4648 15.3819H32.1133C31.9955 15.7743 31.8772 16.1669 31.7559 16.5713C31.6382 16.8459 31.5206 17.1205 31.3994 17.4033H27.7129C27.8466 16.6011 27.8458 16.6007 28.0107 16.2403C28.0475 16.1587 28.0851 16.0772 28.123 15.9932C28.1631 15.9066 28.2028 15.8197 28.2441 15.7305C28.2863 15.6375 28.3286 15.5441 28.3721 15.4483C28.5106 15.1433 28.6504 14.8387 28.79 14.5342C28.9363 14.2129 29.0826 13.8917 29.2285 13.5703C29.3283 13.3507 29.4284 13.1307 29.5283 12.9112C29.9817 11.9148 30.4277 10.9149 30.8711 9.91408C31.066 9.47425 31.2608 9.03441 31.4561 8.59475C31.4923 8.51304 31.529 8.43088 31.5664 8.3467C31.8841 7.63123 32.2016 6.91567 32.5215 6.20119C32.5643 6.10512 32.6073 6.00915 32.6514 5.91017C32.9898 5.1564 32.9901 5.1561 33.4053 5.13967C33.554 5.14029 33.7032 5.14098 33.8564 5.14162ZM74.5332 5.14162C74.6517 5.14187 74.6517 5.14234 74.7725 5.1426C75.0257 5.14326 75.279 5.14402 75.5322 5.14553C75.7036 5.14612 75.8755 5.14699 76.0469 5.14748C76.4676 5.14879 76.8888 5.1509 77.3096 5.15334C79.5315 10.0359 79.531 10.0364 80.5674 12.4512C80.8899 13.2014 81.2181 13.949 81.5537 14.6934C81.59 14.7738 81.6257 14.8547 81.6631 14.9375C81.8381 15.3254 82.0139 15.7134 82.1904 16.1006C82.283 16.305 82.2835 16.3051 82.3779 16.5137C82.4602 16.6943 82.4599 16.6945 82.5439 16.8789C82.6613 17.1657 82.6611 17.1659 82.6611 17.4033H78.8555C78.7378 17.114 78.6193 16.8245 78.498 16.5264C78.4609 16.4356 78.4241 16.3446 78.3857 16.251C78.1418 15.6462 78.1416 15.6462 78.1416 15.3819H72.7891C72.6713 15.7743 72.5539 16.167 72.4326 16.5713C72.3149 16.8459 72.1974 17.1205 72.0762 17.4033H68.3887C68.5224 16.601 68.5226 16.6008 68.6875 16.2403C68.7243 16.1587 68.7609 16.0772 68.7988 15.9932C68.839 15.9064 68.8795 15.8199 68.9209 15.7305C68.9631 15.6375 69.0054 15.5441 69.0488 15.4483C69.1874 15.1433 69.3271 14.8386 69.4668 14.5342C69.613 14.2129 69.7594 13.8917 69.9053 13.5703C70.0051 13.3506 70.1051 13.1308 70.2051 12.9112C70.6584 11.9149 71.1035 10.9149 71.5469 9.91408C71.7418 9.47421 71.9376 9.03445 72.1328 8.59475C72.1691 8.51304 72.2048 8.43088 72.2422 8.3467C72.5599 7.63114 72.8783 6.91576 73.1982 6.20119C73.241 6.10513 73.2841 6.00914 73.3281 5.91017C73.6666 5.15625 73.6665 5.15612 74.082 5.13967C74.2309 5.14029 74.3798 5.14098 74.5332 5.14162ZM99.5508 17.4033H96.1016V5.15334H99.5508V17.4033ZM49.7451 8.0674C48.3934 7.60871 46.7747 7.86384 45.8701 9.04885C45.2283 9.99863 45.0638 10.9822 45.2432 12.1084C45.4653 13.0339 45.9739 13.6952 46.7461 14.2461C47.591 14.6953 48.6128 14.6789 49.5332 14.4893C50.3756 14.208 50.845 13.7619 51.2393 12.9961C51.7132 12.0007 51.7769 11.0049 51.4326 9.94826C51.0793 9.08662 50.6046 8.45892 49.7451 8.0674ZM34.1709 10.1924C34.1077 10.3457 34.0441 10.4992 33.9805 10.6524C33.889 10.8727 33.7986 11.0938 33.708 11.3145C33.6533 11.4469 33.5984 11.5794 33.542 11.7158C33.4019 12.0477 33.4018 12.0482 33.4219 12.4082H36.1572C36.0611 11.9277 35.9482 11.5538 35.7666 11.1055C35.7133 10.9733 35.6594 10.8404 35.6045 10.7041C35.5488 10.5674 35.4929 10.4309 35.4355 10.2901C35.3794 10.1509 35.3235 10.0115 35.2656 9.86818C35.1271 9.52537 34.9881 9.18231 34.8486 8.83986H34.7295C34.5424 9.29023 34.3564 9.74138 34.1709 10.1924ZM74.8477 10.1924C74.7845 10.3457 74.7209 10.4993 74.6572 10.6524C74.5657 10.8727 74.4744 11.0938 74.3838 11.3145C74.3291 11.4469 74.2742 11.5794 74.2178 11.7158C74.0777 12.0477 74.0776 12.0482 74.0977 12.4082H76.833C76.7369 11.9277 76.624 11.5539 76.4424 11.1055C76.3891 10.9733 76.3361 10.8404 76.2812 10.7041C76.2256 10.5674 76.1697 10.4309 76.1123 10.2901C76.0561 10.1509 76.0003 10.0115 75.9424 9.86818C75.8038 9.52535 75.6648 9.18233 75.5254 8.83986H75.4062C75.2192 9.2902 75.0331 9.74142 74.8477 10.1924ZM88.7412 7.97658C88.6091 7.97957 88.4769 7.98229 88.3408 7.98537C88.2068 7.98698 88.0726 7.98859 87.9346 7.99025C87.6042 7.99445 87.2737 8.00101 86.9434 8.00783V10.7432C87.4266 10.7592 87.9092 10.771 88.3926 10.7803C88.5294 10.7853 88.6666 10.7898 88.8076 10.7949C89.4992 10.8264 89.4997 10.8266 90.1406 10.6162C90.5125 10.2518 90.6266 9.96925 90.6602 9.45705C90.6535 8.99907 90.5653 8.72917 90.2734 8.36428C89.8916 8.0125 89.641 7.96449 89.127 7.97267C88.9997 7.97382 88.8723 7.9754 88.7412 7.97658ZM6.57422 2.23244C6.39298 2.20825 6.32602 2.2177 6.17676 2.32814C6.07342 2.44859 6.07317 2.44877 6.05664 2.59084C6.08854 2.76116 6.13178 2.83338 6.26074 2.94924C6.44461 3.00613 6.53038 3.01641 6.70215 2.92678C6.82618 2.7807 6.84514 2.69191 6.8418 2.501C6.76296 2.37583 6.70677 2.29883 6.57422 2.23244Z" fill="white" style="fill:white;fill-opacity:1;"/>
</svg>
