<svg width="186" height="89" viewBox="0 0 186 89" fill="none" xmlns="http://www.w3.org/2000/svg">
<rect width="186" height="89" fill="#202224" style="fill:#202224;fill:color(display-p3 0.1255 0.1333 0.1412);fill-opacity:1;"/>
<path d="M45.4072 32.7246C46.793 31.513 48.6482 32.0314 50.1064 32.7549C50.1436 32.7732 50.1814 32.7917 50.2197 32.8106C51.3015 33.3489 52.2931 34.0544 53.1924 34.8594C53.2249 34.888 53.2576 34.9168 53.291 34.9463C53.5731 35.197 53.8438 35.4577 54.1104 35.7246C54.1794 35.7937 54.2489 35.863 54.3184 35.9317C54.6042 36.2163 54.8645 36.5125 55.1152 36.8291C55.1578 36.8801 55.2011 36.9308 55.2441 36.9815C57.7358 39.9634 58.8226 43.8638 59.2295 47.6631C59.2347 47.7071 59.2398 47.7515 59.2451 47.7969C59.3641 48.8209 59.3277 49.8577 59.3193 50.8867C59.3463 50.8925 59.3736 50.8984 59.4014 50.9043C59.4548 50.9159 59.4551 50.9159 59.5098 50.9278C59.545 50.9353 59.5809 50.9424 59.6172 50.9502C59.774 50.9887 59.9182 51.0476 60.0654 51.1133C60.0959 51.1268 60.1268 51.1404 60.1582 51.1543C61.0006 51.5409 61.7769 52.1836 62.3604 52.9014C62.3457 52.9308 62.3306 52.96 62.3154 52.9903C62.2732 52.9622 62.231 52.9342 62.1875 52.9053C60.7401 51.9598 59.1002 51.6601 57.4072 52.0127C55.552 52.424 53.8511 53.2596 52.1533 54.0879C50.7041 54.7949 49.2278 55.4589 47.6475 55.8115C47.6138 55.8194 47.5796 55.8268 47.5449 55.835C46.6217 56.0448 45.4305 56.0759 44.5166 55.8115C44.4804 55.8012 44.4445 55.7899 44.4072 55.7793C43.2677 55.4452 42.3262 54.8757 41.4512 54.0752C41.3462 53.9797 41.239 53.8869 41.1318 53.794C40.9458 53.6282 40.7862 53.4492 40.626 53.2588C40.581 53.2075 40.5354 53.1567 40.4902 53.1055C40.4413 53.0496 40.3927 52.9934 40.3438 52.9375C40.3201 52.9109 40.2968 52.8839 40.2725 52.8565C40.1487 52.7138 40.0571 52.5921 40 52.4082C40.1219 52.4662 40.2299 52.5308 40.3389 52.6104C40.3691 52.6322 40.3995 52.6542 40.4307 52.6768C40.4628 52.7001 40.4952 52.7231 40.5283 52.7471C41.0211 53.0988 41.5313 53.4004 42.0654 53.6846C42.1018 53.704 42.1383 53.7232 42.1758 53.7432C42.2272 53.7701 42.2278 53.7704 42.2803 53.7979C42.3106 53.8138 42.3409 53.8303 42.3721 53.8467C42.4601 53.8866 42.5443 53.9103 42.6387 53.9307C45.2703 50.9548 46.4618 46.6204 48.3623 39.2471H48.4521C49.1164 40.4215 49.5234 41.673 49.7627 42.999C49.7726 43.0532 49.7731 43.0532 49.7832 43.1084C49.922 43.945 49.9452 44.7887 49.9424 45.6348C49.9423 45.6857 49.9415 45.7366 49.9414 45.7891C49.9394 46.5412 49.9208 47.2785 49.7939 48.0215C49.7825 48.0919 49.7822 48.0922 49.7705 48.1641C49.3907 50.4475 48.5534 52.9139 46.8418 54.5576C47.2047 54.549 47.5505 54.4827 47.9043 54.4063C47.9481 54.3969 47.992 54.3876 48.0371 54.3779C48.161 54.3504 48.2843 54.3206 48.4072 54.2891C48.4416 54.2813 48.4763 54.2737 48.5117 54.2656C48.6485 54.2269 48.7367 54.1922 48.8242 54.0772C48.8784 53.9754 48.9219 53.8731 48.9639 53.7656C48.9803 53.7263 48.9967 53.687 49.0137 53.6465C49.0666 53.5182 49.1176 53.3882 49.168 53.2588C49.1848 53.2163 49.2014 53.1737 49.2188 53.1299C50.7832 49.1658 51.301 44.4923 49.5908 40.4737C49.0117 39.1789 48.3364 38.0823 46.9766 37.5342C46.301 37.2791 45.6351 37.1718 44.915 37.1758C44.8135 37.1763 44.7119 37.1754 44.6104 37.1748C44.2434 37.1745 43.8936 37.1956 43.5312 37.2578C43.113 37.3165 42.8166 37.195 42.4707 36.9746C42.2194 36.723 42.1752 36.4952 42.1719 36.1494C42.1714 36.1186 42.1704 36.0875 42.1699 36.0557C42.1742 35.8053 42.2368 35.6649 42.4111 35.4893C42.4446 35.4606 42.4782 35.4319 42.5127 35.4024C42.7208 35.2199 42.9237 35.0327 43.125 34.8428C43.3799 34.6028 43.6362 34.3643 43.8945 34.1279C44.0324 34.0018 44.1703 33.8758 44.3076 33.749C44.3315 33.727 44.3553 33.7043 44.3799 33.6817C44.5122 33.5594 44.6435 33.4363 44.7744 33.3125C44.9407 33.1554 45.1089 32.9995 45.2773 32.8447C45.3201 32.8053 45.3632 32.7653 45.4072 32.7246ZM119.569 53.0908C120.021 52.5042 120.665 52.479 121.353 52.6153C121.623 52.7892 121.751 52.948 121.947 53.21C121.712 53.3275 121.712 53.3272 121.472 53.4473C121.354 53.3689 121.236 53.2907 121.115 53.21C120.871 53.1814 120.87 53.1806 120.617 53.1944C120.468 53.1993 120.318 53.2049 120.164 53.21C120.203 53.3668 120.242 53.524 120.282 53.6856C120.371 53.7058 120.46 53.7263 120.552 53.7471C120.669 53.7759 120.787 53.8043 120.907 53.834C121.081 53.8753 121.081 53.8758 121.258 53.918C121.635 54.0593 121.82 54.2001 122.066 54.5176C122.059 54.9409 122.038 55.2275 121.784 55.5733C121.329 55.8887 120.815 55.8825 120.282 55.8262C119.874 55.6777 119.874 55.6775 119.569 55.4697C119.465 55.2098 119.465 55.2092 119.45 54.9942C119.607 54.9157 119.764 54.8368 119.926 54.7559C119.972 54.8123 120.019 54.8687 120.067 54.9268C120.34 55.1619 120.52 55.2053 120.877 55.2315C121.147 55.1562 121.147 55.1563 121.353 54.9942L121.472 54.6367C121.374 54.6152 121.277 54.5935 121.177 54.5713C121.049 54.5414 120.92 54.5113 120.788 54.4805C120.661 54.4515 120.534 54.4225 120.403 54.3926C120.048 54.2808 119.834 54.1824 119.569 53.9229C119.502 53.5144 119.502 53.5144 119.569 53.0908ZM140.502 53.0908C140.953 52.504 141.599 52.4789 142.286 52.6153C142.557 52.7891 142.684 52.948 142.881 53.21C142.645 53.3277 142.645 53.3273 142.405 53.4473C142.288 53.3688 142.169 53.2909 142.048 53.21C141.803 53.1814 141.803 53.1806 141.55 53.1944C141.4 53.1993 141.251 53.2049 141.097 53.21C141.136 53.3669 141.175 53.5239 141.216 53.6856C141.305 53.7058 141.394 53.7263 141.485 53.7471C141.602 53.7759 141.719 53.8044 141.84 53.834C142.014 53.8754 142.014 53.8758 142.191 53.918C142.569 54.0593 142.754 54.2 143 54.5176C142.993 54.9409 142.97 55.2274 142.717 55.5733C142.261 55.8886 141.748 55.8824 141.216 55.8262C140.807 55.6775 140.807 55.6778 140.502 55.4697C140.398 55.2098 140.398 55.2093 140.383 54.9942C140.54 54.9157 140.697 54.8367 140.858 54.7559C140.905 54.8123 140.952 54.8686 141 54.9268C141.273 55.1621 141.453 55.2053 141.811 55.2315C142.08 55.1562 142.08 55.1565 142.286 54.9942L142.405 54.6367C142.308 54.6151 142.21 54.5936 142.109 54.5713C141.981 54.5414 141.853 54.5113 141.721 54.4805C141.594 54.4515 141.467 54.4224 141.336 54.3926C140.981 54.2808 140.767 54.1823 140.502 53.9229C140.435 53.5144 140.435 53.5143 140.502 53.0908ZM127.354 52.5801C127.919 52.6267 128.214 52.8154 128.608 53.21C128.649 53.568 128.676 53.8156 128.608 54.1612C128.311 54.5179 128.311 54.5181 128.014 54.7559C128.065 54.8146 128.117 54.8732 128.17 54.9336C128.236 55.0098 128.302 55.0866 128.37 55.1651C128.436 55.2409 128.503 55.3164 128.571 55.3946C128.727 55.5883 128.728 55.5891 128.728 55.708C128.415 55.7601 128.415 55.76 128.014 55.708C127.81 55.5091 127.646 55.2943 127.474 55.0684C127.301 54.8439 127.301 54.844 126.958 54.7637C126.875 54.7612 126.791 54.7584 126.705 54.7559V55.708H126.11V52.6153C126.373 52.6079 126.636 52.6004 126.906 52.5928C127.127 52.5866 127.128 52.5864 127.354 52.5801ZM116.596 53.21H115.525V55.7071H115.05V53.21H113.979V52.6153H116.596V53.21ZM119.094 53.21H117.429V53.9238H118.975V54.5186H117.429V55.2315H119.094V55.7071H116.834V52.6153H119.094V53.21ZM124.803 53.21H123.732V55.7071H123.256V53.21H122.186V52.6153H124.803V53.21ZM131.463 53.21H129.798V53.9238H131.344V54.5186H129.798V55.2315H131.463V55.7071H129.203V52.6153H131.463V53.21ZM132.533 55.2315H134.079V55.7071H131.938V52.6153H132.533V55.2315ZM136.814 53.21H135.149V53.9238H136.696V54.5186H135.149V55.2315H136.814V55.7071H134.555V52.6153H136.814V53.21ZM138.837 52.6153C139.879 54.6544 139.879 54.6549 140.264 55.7071H139.551C139.528 55.6306 139.504 55.5544 139.48 55.4756C139.326 55.1913 139.326 55.1908 138.951 55.1592C138.74 55.1509 138.74 55.151 138.524 55.1426C138.383 55.1359 138.242 55.129 138.097 55.1221C137.933 55.1175 137.933 55.117 137.767 55.1123C137.649 55.4066 137.648 55.407 137.528 55.7071H136.934C137.138 55.0311 137.429 54.4008 137.722 53.7598C137.772 53.6496 137.822 53.5393 137.873 53.4258C137.996 53.1555 138.119 52.8853 138.242 52.6153H138.837ZM145.616 53.21H143.951V53.9238H145.497V54.5186H143.951V55.2315H145.616V55.7071H143.356V52.6153H145.616V53.21ZM138.004 54.6367H139.075C139.022 54.4606 138.966 54.285 138.911 54.1094C138.866 53.9625 138.866 53.9623 138.819 53.8125C138.741 53.5457 138.741 53.545 138.48 53.4473C138.323 53.8397 138.166 54.2324 138.004 54.6367ZM126.936 53.2061C126.822 53.2081 126.821 53.2079 126.705 53.21V54.1612C126.878 54.1676 127.052 54.172 127.226 54.1758C127.37 54.1799 127.371 54.1804 127.519 54.1846C127.801 54.1868 127.801 54.1869 128.014 53.9238C127.979 53.5305 127.979 53.5303 127.775 53.21C127.595 53.2015 127.414 53.1996 127.233 53.2022C127.086 53.2038 127.086 53.2044 126.936 53.2061ZM57.8242 46.8604C57.5028 48.3571 56.9847 49.7025 56.042 50.9199C55.9648 51.0153 55.9649 51.0154 55.9209 51.1104C55.9662 51.099 56.0119 51.0879 56.0586 51.0762C56.0879 51.0689 56.1172 51.0612 56.1475 51.0537C56.2126 51.0373 56.2778 51.0202 56.3428 51.0029C56.4938 50.9633 56.6339 50.9316 56.79 50.918C56.9459 50.9014 57.0396 50.8809 57.1729 50.7969C57.3498 50.5602 57.4365 50.2681 57.5303 49.9912C57.543 49.9554 57.5562 49.9197 57.5693 49.8828C57.6562 49.6382 57.7319 49.3914 57.7988 49.1406C57.8068 49.1108 57.815 49.0806 57.8232 49.0498C58.0042 48.3367 58.0213 47.4892 57.8887 46.7676H57.8438C57.8373 46.7981 57.8309 46.8289 57.8242 46.8604ZM83.3242 38.6543C85.9004 36.2576 90.2379 36.2485 93.0459 38.2237C94.1334 39.0855 94.8674 40.4226 95.0674 41.792C95.2003 43.322 95.2376 44.9497 94.4502 46.3213C94.336 46.5449 94.3355 46.5449 94.3721 46.7871C94.5376 47.1778 94.8357 47.4373 95.1279 47.7383C95.3059 47.9761 95.3057 47.9766 95.3057 48.4522C95.0206 48.8388 94.6658 49.1631 94.3242 49.5C94.1855 49.6429 94.1854 49.6433 94.0439 49.7891L93.5234 50.3096C93.2839 50.4741 93.2838 50.4746 93.0332 50.458C92.6852 50.2997 92.4906 50.0404 92.2432 49.7529C92.1481 49.6437 92.053 49.5345 91.9551 49.4219C91.8833 49.3374 91.8112 49.2531 91.7373 49.166C91.5853 49.2004 91.433 49.2342 91.2764 49.2696C91.1774 49.291 91.0785 49.3129 90.9766 49.335C90.7844 49.3777 90.5929 49.4232 90.4023 49.4727C88.4007 49.9542 86.2393 49.6623 84.4512 48.6572C83.0687 47.8062 82.2361 46.5403 81.8486 44.9688C81.7291 44.3918 81.706 43.8292 81.71 43.2412C81.7106 43.1371 81.7112 43.033 81.7119 42.9258C81.7418 41.3225 82.2158 39.8516 83.3242 38.6543ZM100.081 38.6465C100.086 39.0422 100.092 39.4383 100.098 39.834C100.104 40.25 100.109 40.666 100.113 41.0821C100.119 41.5608 100.126 42.0398 100.133 42.5186C100.134 42.6659 100.136 42.814 100.138 42.9658C100.149 44.635 100.148 44.6353 100.896 46.0733C101.528 46.5477 102.28 46.535 103.037 46.4297C103.583 46.2261 103.904 45.9666 104.219 45.4785C104.421 44.9067 104.48 44.3878 104.488 43.7822C104.491 43.6348 104.494 43.4869 104.496 43.335C104.498 43.1753 104.5 43.0152 104.502 42.8555C104.504 42.6911 104.506 42.5267 104.509 42.3623C104.515 41.9308 104.522 41.4989 104.527 41.0674C104.533 40.6266 104.54 40.1859 104.547 39.7451C104.56 38.8812 104.571 38.0173 104.583 37.1533H108.032C108.051 39.1092 108.052 39.1094 108.056 39.9522C108.058 40.5243 108.062 41.0969 108.068 41.669C108.074 42.1308 108.076 42.5929 108.077 43.0547C108.078 43.2295 108.08 43.4043 108.083 43.5791C108.106 45.1674 107.86 46.7 106.843 47.9766C105.589 49.2284 104.079 49.6342 102.346 49.6787C100.726 49.6503 99.099 49.2709 97.9229 48.0947C97.0054 46.9559 96.5978 45.6538 96.6006 44.2012C96.6006 44.1245 96.6006 44.0478 96.6006 43.9688C96.6007 43.7178 96.6016 43.4668 96.6025 43.2158C96.6028 43.041 96.6034 42.8662 96.6035 42.6914C96.604 42.2327 96.6051 41.7732 96.6064 41.3145C96.6079 40.7634 96.6077 40.2123 96.6084 39.6612C96.6095 38.8253 96.6122 37.9892 96.6143 37.1533H100.063C100.069 37.646 100.075 38.139 100.081 38.6465ZM129.159 37.0996C130.547 37.0991 131.859 37.3638 132.89 38.3428C132.988 38.4362 132.989 38.4361 133.089 38.5313C133.959 39.4485 134.161 40.4734 134.151 41.7012C134.108 42.6908 133.815 43.4928 133.097 44.1963C132.694 44.5218 132.287 44.7808 131.819 45.0029C131.977 45.3387 132.154 45.6242 132.381 45.917C132.444 45.9995 132.509 46.0821 132.574 46.167C132.642 46.2537 132.709 46.3404 132.778 46.4297C132.918 46.611 133.057 46.7933 133.196 46.9746C133.444 47.2955 133.693 47.6149 133.943 47.9336C134.041 48.0591 134.138 48.185 134.235 48.3106C134.321 48.4193 134.406 48.5286 134.494 48.6406C134.674 48.9279 134.674 48.928 134.674 49.4033C133.712 49.4747 132.752 49.5191 131.788 49.4971C131.707 49.4974 131.626 49.4977 131.543 49.4981C130.863 49.4732 130.586 49.2425 130.132 48.7715C130.007 48.5569 129.903 48.3418 129.802 48.1153C129.552 47.5936 129.223 47.1206 128.905 46.6387C128.846 46.5381 128.787 46.4367 128.726 46.333C128.666 46.2393 128.606 46.1454 128.545 46.0488C128.494 45.9647 128.443 45.8806 128.391 45.794C128.028 45.4823 128.028 45.4822 126.943 45.4785V49.4033H123.494V37.1533C124.6 37.1435 125.707 37.1332 126.847 37.1231C127.193 37.1187 127.539 37.1148 127.896 37.1104C128.174 37.109 128.454 37.1075 128.732 37.1065C128.873 37.104 129.014 37.1021 129.159 37.0996ZM73.8564 37.1416C73.975 37.1419 73.9757 37.1423 74.0967 37.1426C74.3498 37.1433 74.6033 37.144 74.8564 37.1455C75.0277 37.1461 75.1989 37.147 75.3701 37.1475C75.791 37.1488 76.212 37.1509 76.6328 37.1533C77.6558 39.4001 78.6592 41.6552 79.6484 43.917C80.0677 44.8751 80.489 45.8328 80.9189 46.7862C80.9557 46.8677 80.9924 46.9492 81.0303 47.0332C81.2008 47.4112 81.3719 47.7897 81.5439 48.167C81.6026 48.2966 81.6613 48.4261 81.7217 48.5596C81.7728 48.6717 81.8243 48.7839 81.877 48.8994C81.9848 49.1655 81.9854 49.1659 81.9854 49.4033H78.1787C78.061 49.114 77.9435 48.8245 77.8223 48.5264C77.785 48.4355 77.7473 48.3447 77.709 48.251C77.4651 47.6462 77.4648 47.6462 77.4648 47.3819H72.1133C71.9955 47.7743 71.8772 48.1669 71.7559 48.5713C71.6382 48.8459 71.5206 49.1205 71.3994 49.4033H67.7129C67.8466 48.6011 67.8458 48.6007 68.0107 48.2403C68.0475 48.1587 68.0851 48.0772 68.123 47.9932C68.1631 47.9066 68.2028 47.8197 68.2441 47.7305C68.2863 47.6375 68.3286 47.5441 68.3721 47.4483C68.5106 47.1433 68.6504 46.8387 68.79 46.5342C68.9363 46.2129 69.0826 45.8917 69.2285 45.5703C69.3283 45.3507 69.4284 45.1307 69.5283 44.9112C69.9817 43.9148 70.4277 42.9149 70.8711 41.9141C71.066 41.4742 71.2608 41.0344 71.4561 40.5947C71.4923 40.513 71.529 40.4309 71.5664 40.3467C71.8841 39.6312 72.2016 38.9157 72.5215 38.2012C72.5643 38.1051 72.6073 38.0092 72.6514 37.9102C72.9898 37.1564 72.9901 37.1561 73.4053 37.1397C73.554 37.1403 73.7032 37.141 73.8564 37.1416ZM114.533 37.1416C114.652 37.1419 114.652 37.1423 114.772 37.1426C115.026 37.1433 115.279 37.144 115.532 37.1455C115.704 37.1461 115.876 37.147 116.047 37.1475C116.468 37.1488 116.889 37.1509 117.31 37.1533C119.531 42.0359 119.531 42.0364 120.567 44.4512C120.89 45.2014 121.218 45.949 121.554 46.6934C121.59 46.7738 121.626 46.8547 121.663 46.9375C121.838 47.3254 122.014 47.7134 122.19 48.1006C122.283 48.305 122.283 48.3051 122.378 48.5137C122.46 48.6943 122.46 48.6945 122.544 48.8789C122.661 49.1657 122.661 49.1659 122.661 49.4033H118.855C118.738 49.114 118.619 48.8245 118.498 48.5264C118.461 48.4356 118.424 48.3446 118.386 48.251C118.142 47.6462 118.142 47.6462 118.142 47.3819H112.789C112.671 47.7743 112.554 48.167 112.433 48.5713C112.315 48.8459 112.197 49.1205 112.076 49.4033H108.389C108.522 48.601 108.523 48.6008 108.688 48.2403C108.724 48.1587 108.761 48.0772 108.799 47.9932C108.839 47.9064 108.88 47.8199 108.921 47.7305C108.963 47.6375 109.005 47.5441 109.049 47.4483C109.187 47.1433 109.327 46.8386 109.467 46.5342C109.613 46.2129 109.759 45.8917 109.905 45.5703C110.005 45.3506 110.105 45.1308 110.205 44.9112C110.658 43.9149 111.104 42.9149 111.547 41.9141C111.742 41.4742 111.938 41.0345 112.133 40.5947C112.169 40.513 112.205 40.4309 112.242 40.3467C112.56 39.6311 112.878 38.9158 113.198 38.2012C113.241 38.1051 113.284 38.0091 113.328 37.9102C113.667 37.1563 113.667 37.1561 114.082 37.1397C114.231 37.1403 114.38 37.141 114.533 37.1416ZM139.551 49.4033H136.102V37.1533H139.551V49.4033ZM89.7451 40.0674C88.3934 39.6087 86.7747 39.8638 85.8701 41.0488C85.2283 41.9986 85.0638 42.9822 85.2432 44.1084C85.4653 45.0339 85.9739 45.6952 86.7461 46.2461C87.591 46.6953 88.6128 46.6789 89.5332 46.4893C90.3756 46.208 90.845 45.7619 91.2393 44.9961C91.7132 44.0007 91.7769 43.0049 91.4326 41.9483C91.0793 41.0866 90.6046 40.4589 89.7451 40.0674ZM74.1709 42.1924C74.1077 42.3457 74.0441 42.4992 73.9805 42.6524C73.889 42.8727 73.7986 43.0938 73.708 43.3145C73.6533 43.4469 73.5984 43.5794 73.542 43.7158C73.4019 44.0477 73.4018 44.0482 73.4219 44.4082H76.1572C76.0611 43.9277 75.9482 43.5538 75.7666 43.1055C75.7133 42.9733 75.6594 42.8404 75.6045 42.7041C75.5488 42.5674 75.4929 42.4309 75.4355 42.2901C75.3794 42.1509 75.3235 42.0115 75.2656 41.8682C75.1271 41.5254 74.9881 41.1823 74.8486 40.8399H74.7295C74.5424 41.2902 74.3564 41.7414 74.1709 42.1924ZM114.848 42.1924C114.784 42.3457 114.721 42.4993 114.657 42.6524C114.566 42.8727 114.474 43.0938 114.384 43.3145C114.329 43.4469 114.274 43.5794 114.218 43.7158C114.078 44.0477 114.078 44.0482 114.098 44.4082H116.833C116.737 43.9277 116.624 43.5539 116.442 43.1055C116.389 42.9733 116.336 42.8404 116.281 42.7041C116.226 42.5674 116.17 42.4309 116.112 42.2901C116.056 42.1509 116 42.0115 115.942 41.8682C115.804 41.5254 115.665 41.1823 115.525 40.8399H115.406C115.219 41.2902 115.033 41.7414 114.848 42.1924ZM128.741 39.9766C128.609 39.9796 128.477 39.9823 128.341 39.9854C128.207 39.987 128.073 39.9886 127.935 39.9903C127.604 39.9945 127.274 40.001 126.943 40.0078V42.7432C127.427 42.7592 127.909 42.771 128.393 42.7803C128.529 42.7853 128.667 42.7898 128.808 42.7949C129.499 42.8264 129.5 42.8266 130.141 42.6162C130.513 42.2518 130.627 41.9692 130.66 41.4571C130.654 40.9991 130.565 40.7292 130.273 40.3643C129.892 40.0125 129.641 39.9645 129.127 39.9727C129 39.9738 128.872 39.9754 128.741 39.9766ZM46.5742 34.2324C46.393 34.2082 46.326 34.2177 46.1768 34.3281C46.0734 34.4486 46.0732 34.4488 46.0566 34.5908C46.0885 34.7612 46.1318 34.8334 46.2607 34.9492C46.4446 35.0061 46.5304 35.0164 46.7021 34.9268C46.8262 34.7807 46.8451 34.6919 46.8418 34.501C46.763 34.3758 46.7068 34.2988 46.5742 34.2324Z" fill="white" style="fill:white;fill-opacity:1;"/>
</svg>
