<svg width="86" height="21" viewBox="0 0 86 21" fill="none" xmlns="http://www.w3.org/2000/svg">
<path d="M7 21H0V14L7.7002 8.40039L7 21ZM21 14V21H14L7.7002 8.40039L21 14ZM79.5762 4C80.7762 4 81.8321 4.20431 82.7441 4.6123C83.8121 5.1043 84.5621 5.92612 84.9941 7.07812C85.3301 7.97811 85.498 9.03412 85.498 10.2461C85.498 11.4698 85.2946 12.5318 84.8867 13.4316C84.3708 14.4995 83.5785 15.2496 82.5107 15.6816C81.7188 15.9936 80.8064 16.1504 79.7744 16.1504C78.4184 16.1504 77.2421 15.8976 76.2461 15.3936C75.4063 14.9736 74.7643 14.3139 74.3203 13.4141C73.8763 12.5141 73.6543 11.4217 73.6543 10.1377C73.6544 7.84593 74.2244 6.21416 75.3643 5.24219C76.3242 4.42621 77.7282 4.01202 79.5762 4ZM34.0938 4.07227C35.3657 4.07227 36.3499 4.19822 37.0459 4.4502C38.3299 4.91819 39.1881 5.77641 39.6201 7.02441C39.9441 7.98437 40.1064 9.0106 40.1064 10.1025C40.1064 11.1824 39.9497 12.2022 39.6377 13.1621C39.3257 14.1461 38.8098 14.8718 38.0898 15.3398C37.6339 15.6278 37.1301 15.8266 36.5781 15.9346C36.0381 16.0306 35.2098 16.0781 34.0938 16.0781H29V4.07227H34.0938ZM52.6846 6.21387H49.3545C48.4907 6.21387 47.8608 6.27456 47.4648 6.39453C47.0688 6.51453 46.7386 6.74868 46.4746 7.09668C46.2947 7.33659 46.1687 7.5765 46.0967 7.81641C46.0367 8.05639 45.9826 8.46425 45.9346 9.04004H52.6846V11.1826H45.9346C46.0306 12.2142 46.3368 12.9338 46.8525 13.3418C47.3685 13.7378 48.2445 13.9365 49.4805 13.9365H52.6846V16.0781H49.3545C48.4545 16.0781 47.6625 16.024 46.9785 15.916C45.8986 15.736 45.0403 15.2621 44.4043 14.4941C43.4925 13.3902 43.0372 11.8964 43.0371 10.0127C43.0371 7.9247 43.6789 6.29779 44.9629 5.13379C45.4066 4.7381 45.8745 4.46262 46.3662 4.30664C46.8702 4.15064 47.5428 4.07227 48.3828 4.07227H52.6846V6.21387ZM63.166 13.4502L66.3164 4.07227H70.042V16.0781H67.6123V7.07812L64.4805 16.0781H61.8525L58.8818 7.07812V16.0781H56.4521V4.07227H60.1777L63.166 13.4502ZM79.5947 6.01562C78.4187 6.01562 77.5782 6.39997 77.0742 7.16797C76.6662 7.76797 76.4619 8.73442 76.4619 10.0664C76.462 11.4702 76.7148 12.5022 77.2188 13.1621C77.7228 13.8099 78.5205 14.1338 79.6123 14.1338C80.6683 14.1338 81.4426 13.8036 81.9346 13.1436C82.4384 12.4835 82.6904 11.4637 82.6904 10.084C82.6904 8.82399 82.4861 7.8641 82.0781 7.2041C81.6102 6.4242 80.7825 6.02772 79.5947 6.01562ZM31.5557 13.9365H34.0938C35.2098 13.9365 35.984 13.6902 36.416 13.1982C36.68 12.8862 36.8899 12.4478 37.0459 11.8838C37.2138 11.3199 37.2979 10.7198 37.2979 10.084C37.2978 9.3762 37.2017 8.72848 37.0098 8.14062C36.8178 7.55263 36.5659 7.11417 36.2539 6.82617C35.7979 6.41823 35.0777 6.21387 34.0938 6.21387H31.5557V13.9365ZM7.7002 8.40039L0 7V0H7L7.7002 8.40039ZM21 7L7.7002 8.40039L14 0H21V7Z" fill="white" style="fill:white;fill-opacity:1;"/>
</svg>
