<svg width="78" height="24" viewBox="0 0 78 24" fill="none" xmlns="http://www.w3.org/2000/svg">
<path d="M0.619142 8.33138C0.674255 8.18363 0.892904 8.2153 0.904299 8.3724C1.01489 9.94976 2.34063 11.7943 3.01465 12.9036C3.69915 14.0301 8.64484 21.5212 10.1328 23.7728C10.2217 23.9076 10.0578 24.0655 9.92481 23.973L4.3584 20.097C0.850211 17.654 -0.764605 13.2915 0.347658 9.18099C0.435759 8.85534 0.530353 8.57017 0.619142 8.33138ZM17.5039 12.8695C17.5562 12.7841 17.6774 12.7744 17.7422 12.8509C18.3287 13.5438 20.5135 16.4914 17.8096 19.1781C15.3423 21.6295 12.2001 23.3776 11.0352 23.9818C10.903 24.0503 10.7635 23.9023 10.8408 23.7757L17.5039 12.8695ZM34.5205 2.94564C37.2619 2.85929 39.4414 3.65622 40.9482 5.16634C42.6337 6.87438 43.4832 9.47072 43.5547 12.7581C43.5571 12.8788 43.4608 12.9789 43.3398 12.9827L31.082 13.3685C30.9581 13.3726 30.8616 13.4777 30.8701 13.6009C31.0603 16.3537 32.4871 17.7197 35.0215 17.64C37.1602 17.5726 38.2402 16.6081 38.5762 14.9212C38.5984 14.8096 38.6984 14.7283 38.8125 14.7347L43.0811 14.9749C43.2184 14.9826 43.3158 15.1125 43.2822 15.2454C42.3334 18.9826 39.5083 20.9258 35.1309 21.0638C32.4241 21.149 30.2446 20.3525 28.7422 18.9808C27.025 17.4081 26.1195 15.1519 26.0273 12.2474C25.9395 9.48129 26.6287 7.10582 28.2773 5.42709C29.7569 3.89219 31.8139 3.03096 34.5205 2.94564ZM69.7471 2.94173C73.4975 2.9418 76.7122 4.17601 77.2539 7.95541C77.2706 8.07198 77.1897 8.18064 77.0732 8.20052L73.0488 8.88412C72.9174 8.90644 72.7961 8.80917 72.7822 8.67709C72.5959 6.9148 71.4759 6.12443 69.8164 6.12435C68.393 6.12435 67.212 6.64308 67.2119 7.85384C67.2119 9.03004 68.462 9.44534 70.7881 9.9642C73.8781 10.6561 77.7324 11.487 77.7324 15.6038C77.7322 19.7548 74.0521 21.0696 69.9902 21.0697C65.9333 21.0697 62.5455 19.4684 62.0957 15.6439C62.0818 15.5256 62.1675 15.4187 62.2861 15.4036L66.4482 14.8734C66.5785 14.8567 66.6946 14.956 66.7061 15.0863C66.8731 16.9913 68.2275 17.8518 70.0938 17.8519C72.0725 17.8519 73.0798 17.1257 73.0801 15.846C73.0801 14.7044 71.7604 14.2885 69.0176 13.6312C65.6846 12.8355 62.629 11.7979 62.6289 8.2347C62.6289 4.42917 65.9974 2.94173 69.7471 2.94173ZM54.7588 2.96224C56.9808 2.96224 58.2659 3.4812 59.377 4.58822C60.7657 5.97201 60.9394 7.84052 60.9395 10.0892V20.6966C60.9393 20.8192 60.8389 20.9183 60.7158 20.9183H56.2666C56.1436 20.9183 56.0441 20.8192 56.0439 20.6966V10.5042C56.0439 8.91295 55.9044 8.08229 55.1406 7.3558C54.5159 6.76799 53.9252 6.66439 52.8838 6.66439C51.3909 6.66454 49.6553 7.66786 49.6553 11.2308V20.6966C49.6552 20.8191 49.5555 20.9182 49.4326 20.9183H45.0176C44.8945 20.9183 44.795 20.8192 44.7949 20.6966V3.59994C44.7949 3.47731 44.8945 3.37826 45.0176 3.37826H49.3975C49.5205 3.37826 49.6201 3.47731 49.6201 3.59994V5.48275C49.6204 5.58881 49.7794 5.62248 49.8291 5.52865C50.8059 3.67958 52.6624 2.96229 54.7588 2.96224ZM11.0049 0.227867C10.9162 0.0930973 11.0801 -0.06481 11.2129 0.0276716L16.7793 3.90462C20.2872 6.34768 21.9022 10.7093 20.79 14.8197C20.7019 15.1453 20.6073 15.4304 20.5186 15.6693C20.4635 15.8173 20.2446 15.7855 20.2334 15.6283C20.1228 14.0511 18.7981 12.2074 18.124 11.098C17.4407 9.97318 12.4931 2.47977 11.0049 0.227867ZM10.1035 0.0179059C10.2354 -0.0505274 10.3745 0.0965083 10.2979 0.222984L3.63477 11.1302C3.58255 11.2157 3.46133 11.2251 3.39649 11.1488C2.80996 10.4559 0.624598 7.50822 3.32813 4.82162C5.79552 2.37002 8.93874 0.622029 10.1035 0.0179059ZM34.627 6.30013C33.2044 6.345 32.2109 6.79101 31.5791 7.67611C31.1545 8.25706 30.9075 8.97627 30.8105 9.80795C30.7952 9.93936 30.9024 10.0513 31.0352 10.0472L38.2793 9.81869C38.4108 9.81461 38.5107 9.69821 38.4902 9.56869C38.338 8.60778 38.0314 7.8036 37.4355 7.21517C36.7543 6.54436 35.8762 6.26079 34.627 6.30013Z" fill="white" style="fill:white;fill-opacity:1;"/>
</svg>
