<svg width="116" height="20" viewBox="0 0 116 20" fill="none" xmlns="http://www.w3.org/2000/svg">
<g clip-path="url(#clip0_12589_8850)">
<path fill-rule="evenodd" clip-rule="evenodd" d="M106.109 6.11948V5.163C106.109 3.66706 107.194 3.31122 107.981 3.31122H109.119V0.400954C108.821 0.264961 108.089 0.128967 107.329 0.128967C104.373 0.128967 102.474 2.08954 102.474 5.11086V6.12175H100.584V9.21334H102.474V19.5443H106.121V9.21334H111.183V19.5443H114.83V6.11948H106.109ZM37.5743 7.46356C38.554 6.40982 39.9829 5.79562 41.8271 5.79537C45.6107 5.79588 47.9021 8.37961 47.9021 12.0329V19.5443H44.2555V11.7337C44.2555 10.0134 43.2463 9.15667 41.826 9.15667C40.4058 9.15667 39.3965 10.0157 39.3965 11.7337V19.5443H35.7499V11.7337C35.7499 10.0134 34.7406 9.15667 33.3203 9.15667C31.9001 9.15667 30.8908 10.0157 30.8908 11.7337V19.5443H27.2442V12.0329C27.2442 8.37698 29.536 5.79537 33.3203 5.79537C35.165 5.79537 36.5943 6.41187 37.5743 7.46356ZM6.55454 11.4492C6.14075 11.3651 5.72542 11.2807 5.28583 11.1785C4.31717 10.9517 3.83848 10.639 3.83848 9.87744C3.83848 9.11587 4.63554 8.54471 5.62903 8.54471C7.22088 8.54471 7.65891 9.55105 7.77181 10.3421L11.0887 9.66212C10.9171 8.22059 9.58268 5.79763 5.60194 5.79763C2.58759 5.79763 0.370301 7.78541 0.370301 10.1789C0.370301 12.5724 2.21278 13.7034 4.01009 14.159C4.40684 14.2597 4.73749 14.3345 5.06558 14.4087C5.34992 14.473 5.63234 14.5368 5.95417 14.6168C6.93638 14.8616 7.64988 15.061 7.64988 15.7614C7.64988 16.4617 7.05153 17.0942 5.80063 17.0942C4.15234 17.0942 3.5314 16.115 3.44561 15.0724L0 15.7524C0.171603 17.2573 1.6212 19.8707 5.82998 19.8707C9.49913 19.8707 11.2604 17.6971 11.2604 15.5189C11.2604 13.2296 9.96201 12.1757 7.24119 11.5932V11.591C7.01017 11.5419 6.78256 11.4955 6.55454 11.4492ZM21.6581 13.9301C21.6581 15.6481 20.5404 16.5071 19.1179 16.5071C17.6955 16.5071 16.5777 15.6504 16.5777 13.9301V6.11948H12.9312V13.6309C12.9312 17.2846 15.3336 19.8685 19.1179 19.8685C22.9022 19.8685 25.3047 17.2868 25.3047 13.6309V6.11948H21.6581V13.9301ZM64.6289 5.79537C62.7852 5.79586 61.3567 6.41003 60.3771 7.46356C59.3972 6.41187 57.9679 5.79537 56.1232 5.79537C52.3389 5.79537 50.0471 8.37698 50.0471 12.0329V19.5443H53.6937V11.7337C53.6937 10.0157 54.703 9.15667 56.1232 9.15667C57.5434 9.15667 58.5527 10.0134 58.5527 11.7337V19.5443H62.1993V11.7337C62.1993 10.0157 63.2086 9.15667 64.6289 9.15667C66.0491 9.15667 67.0584 10.0134 67.0584 11.7337V19.5443H70.705V12.0329C70.705 8.37997 68.414 5.79639 64.6289 5.79537ZM91.2657 8.25232C91.8121 6.89012 93.4086 5.9563 94.9393 5.9563H94.9416C95.391 5.9563 95.7884 6.01069 96.1293 6.11948V9.21107H94.9981C93.0562 9.21107 91.5638 10.5484 91.5638 12.8444V19.5421H87.9172V6.11948H91.2657V8.25232ZM110.447 3.31348C110.447 1.93354 111.553 0.823157 112.898 0.822535C114.244 0.823157 115.349 1.93354 115.349 3.31348H110.447ZM97.0178 17.0533C95.6726 17.054 94.5669 18.1644 94.5669 19.5443H99.4688C99.4688 18.1644 98.363 17.054 97.0178 17.0533ZM79.5877 16.7655C81.245 16.7655 82.1278 15.868 82.5952 14.7573L85.7721 15.8045C85.0135 18.037 82.8594 19.8685 79.5606 19.8685C75.7763 19.8685 72.4436 17.2279 72.4436 12.7106C72.4436 8.43818 75.695 5.79537 79.2241 5.79537C83.4826 5.79537 86.0318 8.41778 86.0318 12.7174C86.0318 13.1076 85.9996 13.4474 85.9839 13.6139C85.9787 13.6679 85.9754 13.7036 85.9754 13.717H76.1149C76.1985 15.4872 77.7384 16.7655 79.5877 16.7655ZM82.3604 11.3756C82.304 10.0406 81.4075 8.7351 79.2783 8.7351C77.3456 8.7351 76.2798 10.1517 76.1963 11.3756H82.3604Z" fill="white" style="fill:white;fill-opacity:1;"/>
</g>
<defs>
<clipPath id="clip0_12589_8850">
<rect width="115.349" height="20" fill="white" style="fill:white;fill-opacity:1;"/>
</clipPath>
</defs>
</svg>
