<svg width="91" height="20" viewBox="0 0 91 20" fill="none" xmlns="http://www.w3.org/2000/svg">
<path d="M5.90039 7.29883H14.6992V0H18.2568V7.29883H20.5137V9.41504H18.2568V12.8711C18.2568 14.282 17.9248 15.5237 17.2617 16.5947C16.5986 17.6657 15.6707 18.5027 14.4785 19.1055C13.2864 19.7018 11.8935 20 10.2998 20C8.70585 20 7.31237 19.7019 6.12012 19.1055C4.92788 18.5026 3.99998 17.6658 3.33691 16.5947C2.68021 15.5237 2.35254 14.282 2.35254 12.8711V9.41504H-0.000976562V7.29883H2.35254V0H5.90039V7.29883ZM52.001 4.7334C53.4354 4.7334 54.6785 5.05068 55.7305 5.68555C56.7824 6.32039 57.5959 7.21151 58.1699 8.35938C58.7499 9.50731 59.04 10.8448 59.04 12.3711C59.04 13.8974 58.7499 15.2315 58.1699 16.373C57.5959 17.5146 56.7825 18.4032 55.7305 19.0381C54.6785 19.6729 53.4353 19.9902 52.001 19.9902C50.5667 19.9902 49.3234 19.6729 48.2715 19.0381C47.2195 18.4032 46.4034 17.5146 45.8232 16.373C45.2495 15.2315 44.9629 13.8974 44.9629 12.3711C44.9629 10.8448 45.2495 9.50731 45.8232 8.35938C46.4034 7.21156 47.2196 6.32038 48.2715 5.68555C49.3234 5.05065 50.5666 4.73345 52.001 4.7334ZM68.085 4.7334C69.2774 4.7334 70.333 4.95397 71.251 5.39648C72.1755 5.83258 72.9115 6.45221 73.46 7.25391C74.0079 8.04906 74.3209 8.97853 74.3975 10.043H71.0889C70.9548 9.33117 70.6358 8.73822 70.1318 8.26367C69.6349 7.78274 68.9686 7.54206 68.1338 7.54199C67.4259 7.54199 66.804 7.73442 66.2686 8.11914C65.7331 8.49754 65.3156 9.04298 65.0156 9.75488C64.7227 10.4667 64.5762 11.3195 64.5762 12.3135C64.5762 13.3204 64.7226 14.1864 65.0156 14.9111C65.3091 15.6292 65.7197 16.184 66.249 16.5752C66.7845 16.96 67.4133 17.1523 68.1338 17.1523C68.6436 17.1523 69.0996 17.0566 69.501 16.8643C69.9089 16.6654 70.2499 16.3797 70.5244 16.0078C70.7984 15.6358 70.9869 15.1837 71.0889 14.6514H74.3975C74.3145 15.6967 74.0085 16.6236 73.4795 17.4316C72.9505 18.2332 72.2302 18.8621 71.3184 19.3174C70.4069 19.7663 69.335 19.9902 68.1045 19.9902C66.6382 19.9902 65.379 19.6662 64.3271 19.0186C63.2817 18.3708 62.4747 17.4765 61.9072 16.335C61.3462 15.187 61.0664 13.8654 61.0664 12.3711C61.0664 10.8705 61.3533 9.54637 61.9268 8.39844C62.5007 7.24423 63.3097 6.34641 64.3555 5.70508C65.4074 5.0574 66.6507 4.73347 68.085 4.7334ZM30.585 4.7334C31.5986 4.7334 32.482 4.95062 33.2344 5.38672C33.993 5.82282 34.5797 6.45495 34.9941 7.28223C35.4149 8.10941 35.6215 9.11314 35.6152 10.293V19.7021H32.1533V10.832C32.1533 9.84456 31.8986 9.07159 31.3887 8.51367C30.885 7.95575 30.1865 7.67678 29.2939 7.67676C28.6882 7.67676 28.1495 7.8117 27.6777 8.08105C27.2123 8.34398 26.8459 8.72541 26.5781 9.22559C26.3167 9.72584 26.1855 10.3321 26.1855 11.0439V19.7021H22.7236V4.92578H26.0322V7.43652H26.2051C26.543 6.60922 27.0817 5.95132 27.8213 5.46387C28.5672 4.9766 29.4885 4.7334 30.585 4.7334ZM42.3154 19.7021H38.8535V0H42.3154V19.7021ZM80.1494 10.8613H80.3887L85.668 4.92578H89.7129L84.0166 11.3027L90.0479 19.7021H85.9062L81.4082 13.376L80.1494 14.7344V19.7021H76.6875V0H80.1494V10.8613ZM52.0205 7.49414C51.2235 7.49414 50.5602 7.71234 50.0312 8.14844C49.5084 8.58447 49.1159 9.17091 48.8545 9.9082C48.5995 10.6393 48.4727 11.4572 48.4727 12.3613C48.4727 13.2592 48.5995 14.0746 48.8545 14.8057C49.1159 15.5365 49.5084 16.1197 50.0312 16.5557C50.5602 16.9854 51.2235 17.2002 52.0205 17.2002C52.7984 17.2002 53.4487 16.9853 53.9717 16.5557C54.4944 16.1197 54.8828 15.5364 55.1377 14.8057C55.3992 14.0746 55.5303 13.2592 55.5303 12.3613C55.5302 11.4572 55.3992 10.6393 55.1377 9.9082C54.8828 9.17105 54.4944 8.58443 53.9717 8.14844C53.4487 7.71238 52.7984 7.49418 52.0205 7.49414ZM5.90039 12.5732C5.90039 13.3941 6.07857 14.1253 6.43555 14.7666C6.79895 15.408 7.30912 15.9118 7.96582 16.2773C8.62892 16.6365 9.40721 16.8154 10.2998 16.8154C11.1985 16.8154 11.9762 16.6364 12.6328 16.2773C13.2959 15.9118 13.806 15.408 14.1631 14.7666C14.5201 14.1253 14.6992 13.3941 14.6992 12.5732V9.41504H5.90039V12.5732Z" fill="white" style="fill:white;fill-opacity:1;"/>
</svg>
