<svg width="84" height="29" viewBox="0 0 84 29" fill="none" xmlns="http://www.w3.org/2000/svg">
<path d="M49.6567 20.3087C50.0648 20.2406 50.4239 20.2783 50.7338 20.422C51.0514 20.5581 51.3084 20.8079 51.5053 21.171C51.5882 21.3221 51.637 21.496 51.6518 21.6925C51.6743 21.8891 51.6673 22.0743 51.6293 22.2481C51.6216 22.2935 51.5959 22.3426 51.5502 22.3956C51.5053 22.4484 51.4484 22.4977 51.3803 22.5431C51.3199 22.5808 51.2558 22.6154 51.1879 22.6456C51.1199 22.6684 51.055 22.683 50.9946 22.6905C50.9192 22.7056 50.8361 22.7023 50.7455 22.6798C50.6624 22.657 50.5787 22.5997 50.4955 22.5089C50.4504 22.456 50.4314 22.3764 50.4389 22.2706C50.454 22.1573 50.4581 22.0472 50.4506 21.9415C50.4505 21.8359 50.4201 21.7455 50.3598 21.67C50.2994 21.5944 50.1747 21.5641 49.9858 21.5792C49.7364 21.6094 49.5584 21.7036 49.4526 21.8624C49.3543 22.0136 49.2936 22.1841 49.2709 22.3731C49.2483 22.5545 49.2483 22.7283 49.2709 22.8946C49.2936 23.061 49.3051 23.1708 49.3051 23.2237C49.3051 23.511 49.2978 23.7831 49.2826 24.0401C49.2675 24.2897 49.2487 24.5396 49.226 24.7891C49.2109 25.0312 49.1993 25.281 49.1918 25.5382C49.1842 25.7877 49.1842 26.0524 49.1918 26.3321C49.1918 26.4757 49.2222 26.6306 49.2826 26.797C49.3431 26.9633 49.4259 27.0773 49.5317 27.1378C49.5996 27.1756 49.6793 27.2166 49.77 27.2618C49.8605 27.2996 49.955 27.3299 50.0532 27.3526C50.1515 27.3678 50.2466 27.3678 50.3373 27.3526C50.4279 27.3375 50.5077 27.2966 50.5756 27.2286C50.6437 27.1605 50.6772 27.0351 50.6772 26.8536C50.6772 26.6721 50.673 26.4869 50.6655 26.2979C50.6655 26.1089 50.677 25.9458 50.6996 25.8097C50.73 25.6663 50.8064 25.6022 50.9272 25.6173C51.1689 25.6476 51.3432 25.7197 51.4487 25.8331C51.5547 25.9463 51.6069 26.0449 51.6069 26.128V26.627C51.6146 26.801 51.6109 26.9714 51.5961 27.1378C51.5807 27.3039 51.5502 27.4624 51.5053 27.6134C51.4673 27.7646 51.4067 27.8974 51.3237 28.0108C51.18 28.1924 51.0095 28.3282 50.8129 28.419C50.6165 28.5097 50.4049 28.5663 50.1782 28.589C49.959 28.6041 49.7359 28.5936 49.5092 28.5557C49.2901 28.5179 49.0826 28.4645 48.8862 28.3966C48.7123 28.3361 48.572 28.2492 48.4662 28.1358C48.3604 28.0148 48.2767 27.882 48.2162 27.7384C48.1634 27.5873 48.1298 27.4248 48.1147 27.2511C48.1071 27.0695 48.1113 26.8876 48.1264 26.7061C48.134 26.5851 48.1371 26.4072 48.1371 26.1729C48.1446 25.931 48.1489 25.6621 48.1489 25.3673C48.1564 25.0649 48.1596 24.7509 48.1596 24.4259C48.1672 24.0934 48.1713 23.776 48.1713 23.4737V22.6456C48.1789 22.396 48.1862 22.2026 48.1938 22.0665C48.2014 21.8473 48.2432 21.6391 48.3188 21.4425C48.4019 21.2459 48.5077 21.068 48.6362 20.9093C48.7722 20.7505 48.9272 20.6218 49.101 20.5235C49.2748 20.4177 49.4602 20.3465 49.6567 20.3087ZM23.0795 20.2745C23.5103 20.2897 23.9187 20.41 24.3041 20.6368C24.6896 20.8561 25.0068 21.1552 25.2563 21.5333C25.5056 21.9188 25.6564 22.327 25.7094 22.7579C25.7623 23.1889 25.7099 23.6126 25.5512 24.0284C25.2186 24.8829 24.6587 25.3294 23.8725 25.3673C23.6009 25.3824 23.4045 25.4581 23.2836 25.5938C23.1627 25.7225 23.1052 25.9346 23.1127 26.2296V26.502C23.1203 26.5927 23.1286 26.6838 23.1362 26.7745C23.1513 26.918 23.1628 27.0657 23.1703 27.2169C23.1779 27.3604 23.1737 27.5081 23.1586 27.6593C23.1511 27.7122 23.1469 27.7912 23.1469 27.8966C23.1544 27.9949 23.1471 28.0974 23.1244 28.2032C23.1093 28.3016 23.0674 28.3924 22.9994 28.4757C22.939 28.551 22.8411 28.5889 22.7055 28.589C22.5694 28.589 22.4627 28.5586 22.3871 28.4981C22.3193 28.4302 22.2667 28.3545 22.2289 28.2716C22.1988 28.1808 22.183 28.0898 22.183 27.9991V27.7491C22.1754 27.5983 22.1723 27.4963 22.1723 27.4434C22.1723 27.383 22.1754 27.3411 22.183 27.3184L22.1498 25.4806C22.1347 24.7395 22.1232 24.021 22.1157 23.3253C22.108 22.6221 22.0998 21.9191 22.0922 21.2159C22.0847 21.0344 22.0929 20.8787 22.1157 20.7501C22.1383 20.6218 22.1908 20.5158 22.2739 20.4327C22.3495 20.3571 22.4519 20.3121 22.5805 20.297C22.7165 20.2743 22.883 20.2669 23.0795 20.2745ZM28.2885 20.2735C28.5605 20.2736 28.8288 20.3195 29.0932 20.4102C29.3577 20.5009 29.6038 20.6296 29.8305 20.796C30.0647 20.9623 30.2691 21.1549 30.4428 21.3741C30.6242 21.5934 30.7562 21.8319 30.8393 22.089C30.9375 22.3838 30.9794 22.6748 30.9643 22.962C30.9568 23.2418 30.9075 23.5105 30.8168 23.7677C30.7337 24.0171 30.6164 24.2516 30.4653 24.4708C30.3217 24.69 30.1593 24.8794 29.978 25.0382C29.978 25.1062 29.9967 25.1932 30.0346 25.2989C30.0799 25.3973 30.1323 25.5112 30.1928 25.6397C30.2608 25.7607 30.333 25.8895 30.4086 26.0255C30.4917 26.1616 30.5714 26.2977 30.6469 26.4337C30.7149 26.547 30.7789 26.657 30.8393 26.7628C30.8997 26.8684 30.9564 26.9703 31.0092 27.0684C31.0394 27.1213 31.0656 27.1937 31.0883 27.2843C31.111 27.3675 31.1299 27.4584 31.145 27.5567C31.1677 27.6551 31.1833 27.7534 31.1909 27.8516C31.1984 27.9499 31.2026 28.0368 31.2026 28.1124V28.1349C31.2102 28.1952 31.2102 28.256 31.2026 28.3165C31.2026 28.3694 31.1796 28.4154 31.1342 28.4532C31.0661 28.5438 30.8657 28.5889 30.5336 28.589C30.4505 28.589 30.3855 28.566 30.3403 28.5206C30.295 28.4677 30.2614 28.407 30.2387 28.339C30.2161 28.2635 30.2004 28.188 30.1928 28.1124C30.1853 28.0293 30.1779 27.9538 30.1703 27.8858C30.1703 27.8253 30.1662 27.7835 30.1586 27.7608C30.1284 27.5492 30.0718 27.3451 29.9887 27.1485C29.9055 26.9519 29.8072 26.7699 29.6938 26.6036C29.5805 26.4373 29.4558 26.2938 29.3198 26.1729C29.1913 26.0443 29.0625 25.9419 28.934 25.8663C28.6772 25.7303 28.4655 25.6958 28.2993 25.7638L28.2885 25.7755C28.2734 25.7906 28.2618 25.8324 28.2543 25.9005V26.127C28.2543 26.2176 28.2575 26.3162 28.2651 26.422C28.2726 26.5203 28.281 26.6154 28.2885 26.7061C28.3036 26.8874 28.3183 27.0688 28.3334 27.2501C28.3486 27.4316 28.3486 27.5905 28.3334 27.7266C28.3258 27.7569 28.3217 27.7872 28.3217 27.8175C28.3292 27.84 28.3334 27.8664 28.3334 27.8966C28.3409 27.9798 28.3368 28.0707 28.3217 28.169C28.3141 28.2673 28.2807 28.351 28.2201 28.419C28.1219 28.5173 27.9857 28.5665 27.8119 28.5665C27.6305 28.5816 27.4871 28.5357 27.3813 28.4298C27.2906 28.3467 27.2372 28.241 27.2221 28.1124C27.2146 27.9838 27.2104 27.8741 27.2104 27.7833V27.7042C27.2028 26.8346 27.207 25.9686 27.2221 25.1065C27.2372 24.2368 27.2529 23.3742 27.268 22.5196C27.2755 22.2854 27.2787 22.0549 27.2787 21.8282C27.2863 21.5939 27.2905 21.3594 27.2905 21.1251C27.298 20.9363 27.3317 20.7885 27.392 20.6827C27.4601 20.5693 27.5437 20.4815 27.642 20.421C27.7402 20.3606 27.8461 20.3228 27.9594 20.3077C28.0727 20.2851 28.1828 20.2735 28.2885 20.2735ZM34.0707 20.2735C34.2898 20.2585 34.5204 20.2814 34.7621 20.3419C35.004 20.4023 35.1967 20.5467 35.3403 20.7735C35.582 21.1741 35.7444 21.571 35.8276 21.964C35.9183 22.3572 35.9748 22.7128 35.9975 23.0304C36.0278 23.5446 36.0204 24.0632 35.975 24.585C35.9373 25.099 35.888 25.613 35.8276 26.127L35.7826 26.5128C35.76 26.7245 35.7222 26.9515 35.6694 27.1934C35.6164 27.4354 35.5443 27.6247 35.4535 27.7608C35.3629 27.9424 35.2644 28.0865 35.1586 28.1925C35.0529 28.2982 34.9355 28.381 34.8071 28.4415C34.6786 28.5019 34.5424 28.5437 34.3989 28.5665C34.2553 28.5816 34.1002 28.589 33.934 28.589C33.8358 28.5889 33.73 28.5775 33.6166 28.5548C33.4204 28.5095 33.2619 28.438 33.141 28.3399C33.0202 28.2342 32.9216 28.1126 32.8461 27.9766C32.7705 27.8331 32.713 27.678 32.6752 27.5118C32.6374 27.3378 32.6112 27.1632 32.5961 26.9893C32.5659 26.7474 32.5471 26.5088 32.5395 26.2745C32.5319 26.0402 32.5245 25.8057 32.517 25.5714C32.5094 25.4656 32.5053 25.3671 32.5053 25.2765C32.5053 25.1782 32.5022 25.0798 32.4946 24.9815C32.5022 24.8305 32.5053 24.6869 32.5053 24.5509C32.5129 24.4149 32.517 24.2787 32.517 24.1427C32.5321 23.7797 32.5469 23.4315 32.5619 23.0987C32.5771 22.7585 32.596 22.4175 32.6186 22.0772C32.6337 21.9035 32.6641 21.7295 32.7094 21.5557C32.7547 21.3819 32.8155 21.2195 32.891 21.0684C33.0195 20.8037 33.1859 20.6103 33.3901 20.4893C33.6016 20.3608 33.8289 20.2887 34.0707 20.2735ZM38.3393 20.2852H38.7475C38.8984 20.2852 39.0455 20.2894 39.1889 20.297C39.3325 20.297 39.458 20.3002 39.5639 20.3077H40.5844C40.728 20.3002 40.8716 20.297 41.0151 20.297H41.1059L41.1166 20.3077C41.1695 20.3153 41.2418 20.3267 41.3325 20.3419C41.4232 20.357 41.5142 20.3948 41.6049 20.4552C41.6955 20.5081 41.7742 20.5918 41.8422 20.7052C41.9102 20.8111 41.9447 20.9544 41.9448 21.1358C41.9448 21.2644 41.9259 21.3668 41.8881 21.4425C41.8504 21.5104 41.8009 21.5629 41.7407 21.6007C41.6878 21.6385 41.6312 21.6656 41.5707 21.6807C41.5178 21.6883 41.476 21.6957 41.4457 21.7032H41.3891L41.3666 21.7149H40.6752C40.3203 21.7074 40.1045 21.741 40.0287 21.8165C39.9833 21.8619 39.9562 21.9455 39.9487 22.0665C39.9411 22.1798 39.9411 22.3234 39.9487 22.4972V23.0645C39.9335 23.609 39.9189 24.1497 39.9037 24.6866C39.8886 25.2236 39.8739 25.7568 39.8588 26.2862L39.8246 27.4093V27.6251C39.8246 27.6627 39.8205 27.7006 39.8129 27.7384V27.9425C39.8205 28.0104 39.8246 28.0934 39.8246 28.1915C39.8246 28.2822 39.7868 28.3659 39.7114 28.4415C39.6357 28.5398 39.5102 28.589 39.3364 28.589C39.1248 28.5889 38.9624 28.5282 38.8491 28.4073C38.7509 28.309 38.6943 28.2033 38.6791 28.0899C38.664 27.9689 38.6567 27.8779 38.6567 27.8175C38.6718 27.1293 38.6865 26.4486 38.7016 25.7755C38.7167 25.0951 38.7324 24.4222 38.7475 23.7569L38.77 22.9054V22.338C38.77 22.2323 38.7773 22.1337 38.7924 22.0431C38.8075 21.9223 38.8118 21.8467 38.8041 21.8165C38.8041 21.7787 38.7883 21.741 38.7582 21.7032L38.7358 21.669C38.7207 21.6539 38.6976 21.6423 38.6674 21.6349C38.6444 21.6274 38.5802 21.6241 38.475 21.6241H38.4067C38.3463 21.6241 38.2632 21.6199 38.1576 21.6124C38.0595 21.6048 37.9536 21.5901 37.8403 21.5675C37.7269 21.5448 37.6128 21.5103 37.4994 21.4649C37.3937 21.4196 37.3067 21.3589 37.2387 21.2833C37.133 21.17 37.0878 21.0338 37.103 20.8751C37.118 20.7089 37.1748 20.5843 37.2729 20.5011C37.3787 20.4179 37.4959 20.3604 37.6244 20.3302C37.7605 20.2923 37.8933 20.2735 38.0219 20.2735C38.1578 20.2735 38.2638 20.2776 38.3393 20.2852ZM44.6284 20.2735C44.8474 20.2585 45.078 20.2814 45.3198 20.3419C45.5616 20.4023 45.7542 20.5467 45.8979 20.7735C46.1395 21.1741 46.302 21.571 46.3852 21.964C46.4758 22.3572 46.5325 22.7128 46.5551 23.0304C46.5854 23.5446 46.578 24.0632 46.5326 24.585C46.4949 25.099 46.4456 25.613 46.3852 26.127L46.3403 26.5128C46.3176 26.7245 46.2799 26.9515 46.227 27.1934C46.1741 27.4354 46.1018 27.6247 46.0112 27.7608C45.9204 27.9424 45.822 28.0865 45.7162 28.1925C45.6105 28.2982 45.4931 28.381 45.3647 28.4415C45.2363 28.5019 45.1001 28.5437 44.9565 28.5665C44.8129 28.5816 44.6578 28.589 44.4916 28.589C44.3934 28.5889 44.2875 28.5775 44.1743 28.5548C43.9777 28.5094 43.8186 28.4382 43.6977 28.3399C43.5769 28.2342 43.4793 28.1126 43.4037 27.9766C43.3283 27.8331 43.2706 27.678 43.2328 27.5118C43.195 27.3378 43.1689 27.1632 43.1537 26.9893C43.1236 26.7474 43.1047 26.5088 43.0971 26.2745C43.0895 26.0402 43.0822 25.8057 43.0746 25.5714C43.0671 25.4656 43.0629 25.3671 43.0629 25.2765C43.0629 25.1782 43.0597 25.0798 43.0522 24.9815C43.0597 24.8305 43.0629 24.6869 43.0629 24.5509C43.0704 24.4149 43.0746 24.2787 43.0746 24.1427C43.0898 23.7797 43.1044 23.4315 43.1196 23.0987C43.1347 22.7585 43.1535 22.4175 43.1762 22.0772C43.1913 21.9035 43.2217 21.7295 43.267 21.5557C43.3124 21.3819 43.3731 21.2195 43.4487 21.0684C43.5772 20.8037 43.7436 20.6103 43.9477 20.4893C44.1594 20.3608 44.3865 20.2887 44.6284 20.2735ZM54.8412 20.2735C55.0606 20.2585 55.2908 20.2814 55.5326 20.3419C55.7746 20.4023 55.9682 20.5467 56.1118 20.7735C56.3535 21.1741 56.516 21.571 56.5991 21.964C56.6898 22.3572 56.7464 22.7128 56.769 23.0304C56.7992 23.5446 56.7916 24.0632 56.7465 24.585C56.7086 25.099 56.6595 25.613 56.5991 26.127L56.5541 26.5128C56.5316 26.7245 56.4935 26.9515 56.4409 27.1934C56.3874 27.4353 56.3157 27.6247 56.225 27.7608C56.1343 27.9424 56.0363 28.0865 55.9301 28.1925C55.8246 28.2983 55.7065 28.381 55.5785 28.4415C55.4499 28.5019 55.3144 28.5437 55.1703 28.5665C55.0268 28.5816 54.8715 28.589 54.7055 28.589C54.6071 28.5889 54.5012 28.5775 54.3881 28.5548C54.192 28.5095 54.0325 28.4381 53.9116 28.3399C53.7905 28.2341 53.6926 28.1127 53.6166 27.9766C53.5414 27.8331 53.484 27.678 53.4467 27.5118C53.4087 27.3378 53.3824 27.1632 53.3676 26.9893C53.3374 26.7474 53.3187 26.5089 53.311 26.2745C53.3032 26.0402 53.2962 25.8057 53.2885 25.5714C53.2808 25.4656 53.2768 25.3671 53.2768 25.2765C53.2768 25.1782 53.2731 25.0798 53.266 24.9815C53.2731 24.8305 53.2768 24.6869 53.2768 24.5509C53.2838 24.4149 53.2885 24.2787 53.2885 24.1427C53.3033 23.7797 53.3187 23.4315 53.3334 23.0987C53.3489 22.7585 53.3676 22.4175 53.3901 22.0772C53.4049 21.9035 53.4352 21.7295 53.4809 21.5557C53.5258 21.3819 53.5866 21.2195 53.6625 21.0684C53.7906 20.8037 53.9575 20.6103 54.1616 20.4893C54.3731 20.3609 54.5994 20.2887 54.8412 20.2735ZM58.8832 20.2735C59.1018 20.2735 59.265 20.3229 59.3705 20.421C59.4838 20.5193 59.5258 20.7315 59.4955 21.0567C59.4808 21.2152 59.4654 21.3474 59.4506 21.4532C59.4429 21.5591 59.4352 21.6542 59.4282 21.7374C59.4282 21.8129 59.4241 21.8852 59.4164 21.9532C59.4094 22.0212 59.4047 22.1041 59.4047 22.2022C59.3899 22.9055 59.3823 23.6051 59.3823 24.3009C59.3823 24.9966 59.3636 25.6962 59.3256 26.3995C59.3108 26.7777 59.3785 27.039 59.5297 27.1827C59.6811 27.3187 59.934 27.3711 60.2895 27.3409C60.4027 27.3333 60.5426 27.3186 60.7094 27.296C60.8755 27.2733 61.0338 27.2691 61.185 27.2843C61.3363 27.2994 61.4647 27.3412 61.5707 27.4093C61.6766 27.4773 61.7329 27.5987 61.7407 27.7725C61.7781 27.9992 61.7484 28.1658 61.6508 28.2716C61.5526 28.3698 61.4228 28.4411 61.2651 28.4864C61.106 28.5243 60.9351 28.5431 60.7534 28.5431C60.5802 28.5355 60.4328 28.5355 60.3119 28.5431C60.1686 28.5506 59.9984 28.5621 59.8022 28.5772C59.6056 28.5848 59.4123 28.589 59.2231 28.589C59.0423 28.5889 58.8753 28.5733 58.7241 28.5431C58.5731 28.5128 58.4711 28.4603 58.4184 28.3849C58.3804 28.3319 58.3547 28.2106 58.3393 28.0216C58.3316 27.8327 58.3276 27.6022 58.3276 27.3302C58.3276 27.0503 58.3315 26.7398 58.3393 26.3995C58.3547 26.0592 58.3687 25.7151 58.3842 25.3673C58.399 25.0119 58.4106 24.6678 58.4184 24.335C58.4339 24.0024 58.4408 23.7 58.4409 23.4278C58.4486 23.027 58.4526 22.6296 58.4526 22.2364C58.4526 21.8432 58.4673 21.4458 58.4975 21.045V20.8409C58.4975 20.7503 58.5052 20.6633 58.52 20.5802C58.5425 20.497 58.5805 20.4249 58.6332 20.3643C58.6867 20.3038 58.7701 20.2736 58.8832 20.2735ZM34.1274 21.3966C34.014 21.4117 33.9188 21.4388 33.8432 21.4766C33.8055 21.4918 33.7676 21.5222 33.7299 21.5675C33.6923 21.6127 33.6585 21.6655 33.6284 21.7257C33.6057 21.7787 33.5828 21.8361 33.56 21.8966C33.545 21.9568 33.5376 22.0095 33.5375 22.0548C33.5148 22.5085 33.4845 22.9591 33.4467 23.4054C33.4165 23.8438 33.3976 24.2824 33.3901 24.7208C33.3825 24.872 33.3867 25.0269 33.4018 25.1856C33.4245 25.3368 33.435 25.4885 33.435 25.6397C33.435 25.7229 33.4392 25.8025 33.4467 25.878C33.4543 25.9536 33.4616 26.0331 33.4692 26.1163C33.4692 26.2977 33.4849 26.4757 33.5151 26.6495C33.5453 26.8158 33.5789 26.9822 33.6166 27.1485C33.6318 27.2242 33.681 27.3151 33.7641 27.421C33.8548 27.5191 33.9533 27.5872 34.059 27.6251C34.1646 27.6251 34.2476 27.6136 34.308 27.5909C34.3685 27.5683 34.4146 27.542 34.4448 27.5118C34.475 27.474 34.497 27.4354 34.5121 27.3975C34.5272 27.3523 34.543 27.3112 34.558 27.2735C34.679 26.8955 34.7732 26.4906 34.8412 26.0597C34.9168 25.6286 34.9659 25.2009 34.9887 24.7774C35.0189 24.3464 35.0263 23.9343 35.0112 23.5411C34.996 23.1403 34.9584 22.7848 34.8979 22.4747C34.845 22.1647 34.7696 21.9148 34.6713 21.7257C34.5806 21.5292 34.4706 21.4193 34.3422 21.3966C34.3191 21.3817 34.2474 21.3816 34.1274 21.3966ZM44.685 21.3966C44.5716 21.4117 44.4765 21.4388 44.4008 21.4766C44.3632 21.4918 44.3253 21.5222 44.2875 21.5675C44.2499 21.6127 44.2161 21.6655 44.186 21.7257C44.1632 21.7787 44.1403 21.8361 44.1176 21.8966C44.1026 21.9568 44.0952 22.0095 44.0951 22.0548C44.0725 22.5085 44.0421 22.9591 44.0043 23.4054C43.9741 23.8438 43.9553 24.2824 43.9477 24.7208C43.9401 24.872 43.9434 25.0269 43.9584 25.1856C43.9811 25.3368 43.9926 25.4885 43.9926 25.6397C43.9926 25.7229 43.9968 25.8025 44.0043 25.878C44.0118 25.9536 44.0193 26.0331 44.0268 26.1163C44.0268 26.2977 44.0424 26.4757 44.0727 26.6495C44.1029 26.8158 44.1364 26.9822 44.1743 27.1485C44.1893 27.2242 44.2387 27.3151 44.3217 27.421C44.4124 27.5191 44.5108 27.5872 44.6166 27.6251C44.7222 27.6251 44.8052 27.6136 44.8657 27.5909C44.9261 27.5683 44.9721 27.542 45.0024 27.5118C45.0325 27.474 45.0547 27.4354 45.0698 27.3975C45.0848 27.3523 45.1006 27.3112 45.1157 27.2735C45.2366 26.8955 45.3308 26.4906 45.3989 26.0597C45.4744 25.6286 45.5236 25.2009 45.5463 24.7774C45.5765 24.3464 45.5839 23.9343 45.5688 23.5411C45.5536 23.1403 45.5159 22.7848 45.4555 22.4747C45.4026 22.1647 45.3272 21.9147 45.2289 21.7257C45.1383 21.5292 45.0284 21.4193 44.8998 21.3966C44.8768 21.3817 44.8051 21.3816 44.685 21.3966ZM54.8989 21.3966C54.7849 21.4117 54.69 21.4388 54.6147 21.4766C54.5769 21.4918 54.5393 21.5222 54.5014 21.5675C54.4641 21.6128 54.4291 21.6653 54.3989 21.7257C54.3763 21.7787 54.354 21.8361 54.3315 21.8966C54.3161 21.9568 54.3081 22.0095 54.308 22.0548C54.2855 22.5085 54.2555 22.9591 54.2182 23.4054C54.188 23.8438 54.1693 24.2824 54.1616 24.7208C54.1538 24.872 54.1575 25.0269 54.1723 25.1856C54.1948 25.3368 54.2065 25.4885 54.2065 25.6397C54.2065 25.7229 54.2105 25.8025 54.2182 25.878C54.2252 25.9536 54.2329 26.0331 54.2407 26.1163C54.2407 26.2977 54.2553 26.4757 54.2856 26.6495C54.3158 26.8158 54.3508 26.9822 54.3881 27.1485C54.4037 27.2241 54.4526 27.3152 54.5356 27.421C54.6263 27.5191 54.7244 27.5872 54.8305 27.6251C54.9359 27.6251 55.0198 27.6136 55.0795 27.5909C55.1399 27.5683 55.186 27.542 55.2162 27.5118C55.2465 27.474 55.2681 27.4354 55.2836 27.3975C55.2983 27.3524 55.3139 27.3111 55.3285 27.2735C55.4495 26.8955 55.5445 26.4906 55.6127 26.0597C55.688 25.6286 55.737 25.2009 55.7602 24.7774C55.7904 24.3464 55.7974 23.9343 55.7826 23.5411C55.7672 23.1403 55.7299 22.7848 55.6694 22.4747C55.6159 22.1647 55.5403 21.9148 55.4418 21.7257C55.3511 21.5293 55.2424 21.4193 55.1137 21.3966C55.0909 21.3816 55.0191 21.3815 54.8989 21.3966ZM23.601 21.3399C23.4044 21.2945 23.2683 21.3028 23.1928 21.3634C23.1248 21.4239 23.0903 21.541 23.0903 21.7149C23.0978 21.9114 23.102 22.1083 23.102 22.3048V23.4161C23.0869 23.5976 23.0869 23.7607 23.102 23.9044C23.1171 24.0328 23.1402 24.1575 23.1703 24.2784C23.2082 24.3918 23.2762 24.4671 23.3744 24.505C23.4725 24.5427 23.5596 24.5616 23.6352 24.5616C23.7106 24.5616 23.7821 24.5501 23.85 24.5274C23.9181 24.4972 23.9788 24.4637 24.0317 24.4259C24.0922 24.3805 24.1487 24.3387 24.2016 24.3009C24.3603 24.195 24.4776 24.0779 24.5532 23.9493C24.6288 23.8132 24.6779 23.6731 24.7006 23.5294C24.7308 23.3858 24.7382 23.2381 24.7231 23.087C24.7155 22.9359 24.6966 22.7849 24.6664 22.6339C24.5908 22.2709 24.4663 21.9865 24.2924 21.7823C24.1186 21.5707 23.8881 21.4231 23.601 21.3399ZM29.0473 21.6241C28.7828 21.4578 28.5828 21.3971 28.4467 21.4425C28.424 21.4803 28.4011 21.5715 28.3784 21.7149C28.3634 21.8585 28.3526 22.0284 28.3451 22.2247C28.3376 22.4138 28.3334 22.6186 28.3334 22.838C28.3334 23.0571 28.3376 23.2655 28.3451 23.462C28.3527 23.6583 28.3634 23.8282 28.3784 23.9718C28.3935 24.1155 28.4124 24.2106 28.435 24.2559C28.6315 24.2711 28.8136 24.2522 28.9799 24.1993C29.1537 24.1388 29.3087 24.0437 29.4448 23.9151C29.5958 23.7866 29.709 23.6317 29.7846 23.4503C29.8678 23.2612 29.9096 23.0678 29.9096 22.8712C29.9095 22.758 29.8833 22.6446 29.8305 22.5313C29.7852 22.4104 29.7203 22.2964 29.6371 22.1905C29.5617 22.0773 29.4713 21.9713 29.3657 21.8731C29.2599 21.7748 29.1531 21.6921 29.0473 21.6241ZM8.66546 1.87997C9.8252 1.51751 11.1693 1.85615 11.9877 2.7618C12.7264 3.55852 13.0812 4.60473 13.2211 5.65145C13.282 6.12267 13.2902 6.59653 13.2534 7.06747C14.4917 6.75106 15.6998 6.2329 16.7944 5.57821C16.8442 5.54842 16.9032 5.53806 16.9604 5.54891C17.0175 5.55994 17.0687 5.5916 17.1039 5.63778C17.1391 5.68408 17.1557 5.74197 17.1508 5.79989C17.1459 5.85767 17.12 5.91151 17.0776 5.95126L17.0766 5.95028C15.9853 6.92997 14.5573 7.83261 13.0424 8.36141C12.7994 9.35581 12.3839 10.3122 11.8793 11.1729C11.3854 12.0152 10.8024 12.8023 10.1401 13.5206C10.0481 13.6274 9.94485 13.724 9.83148 13.8077C9.09252 14.3476 7.98825 14.0399 7.63617 13.2003C6.83786 11.2514 5.64079 9.48974 4.12152 8.02743C2.94907 6.8951 1.60731 5.95008 0.144955 5.22665C0.0928373 5.20464 0.0501521 5.16486 0.0248379 5.11434C-0.000417636 5.06367 -0.0066695 5.00518 0.00725973 4.95028C0.0212124 4.89552 0.0546939 4.84709 0.10101 4.81454C0.147365 4.78206 0.203855 4.76722 0.260189 4.77255C0.492976 4.79816 0.702939 4.83848 0.923275 4.88387C1.57 5.02713 2.20212 5.22937 2.81195 5.48739C5.43116 6.57406 7.63504 8.56095 9.10492 10.9864C9.58347 10.3199 10.0316 9.6004 10.3764 8.84677C10.1553 8.84647 9.93513 8.83449 9.71722 8.81063C7.8476 8.62982 6.0095 7.02116 6.06585 5.04794C6.11079 3.54972 7.2724 2.29445 8.66546 1.87997ZM39.3373 8.55708e-05C39.7035 -0.00730431 40.4297 0.465324 40.6948 0.883875C40.8975 1.20335 40.7622 1.58474 39.978 2.91122L39.0102 4.54208L41.7446 4.64266C46.1013 4.8028 48.2877 5.45608 48.977 6.80575C49.3829 7.59749 48.2894 7.77308 47.394 7.06063C46.9128 6.67775 44.8768 6.43311 40.0141 6.17391L38.1918 6.07626L37.3539 8.06845C36.5762 9.91281 36.2215 11.6731 36.5834 11.8878C36.6661 11.9371 37.6766 12.4046 39.5746 11.8917C39.7024 11.8541 39.8289 11.8165 39.9535 11.7804C40.0104 11.7634 40.0674 11.7466 40.1244 11.7296L40.1264 11.7286C41.5262 11.3106 42.9669 10.8811 44.0932 10.13C44.4288 9.8206 44.8144 9.5694 45.1 9.39657C45.6054 9.09188 46.852 8.91287 47.3432 9.89852C47.5275 10.2575 47.2713 10.3704 46.9936 10.4923C46.8971 10.5346 46.7974 10.5776 46.7133 10.6329C46.2171 10.9485 45.7987 11.3718 45.4897 11.8712C47.7378 11.6612 49.9238 11.0166 51.9243 9.97274C52.4041 9.70365 53.465 9.59632 53.9799 10.421C54.1621 10.717 54.0704 10.8919 53.9662 11.0899C53.9318 11.1552 53.897 11.2233 53.8696 11.2989C53.8288 11.405 53.8056 11.5358 53.7817 11.67C53.7458 11.876 53.7084 12.0895 53.6059 12.2306C55.7422 12.2304 57.6913 11.4242 59.3627 10.6358C59.4998 10.5681 59.6498 10.4719 59.81 10.3692L59.853 10.3419C60.1287 10.1103 60.4256 9.9013 60.7407 9.71688C61.6372 9.18568 62.6911 8.85201 63.8784 8.74911C64.259 8.71825 64.6799 8.74688 65.0981 8.77548C65.6509 8.81342 66.1992 8.85122 66.6401 8.74911C66.7031 8.7353 66.7611 8.7213 66.8159 8.70809C67.1892 8.61807 67.4017 8.56667 67.9584 8.91024C68.4303 9.19709 68.668 9.51988 68.6078 9.91415C68.5649 10.1497 68.4429 10.3638 68.3149 10.5899C68.1796 10.8283 68.0367 11.0805 67.9711 11.3839C68.0933 11.3793 68.2109 11.3765 68.3246 11.3751C69.332 11.2435 70.5669 10.7725 71.5248 10.3477C71.6498 10.2831 71.7663 10.2174 71.8705 10.1524C72.2709 9.90311 72.7077 9.18623 72.8334 8.71786C73.5209 6.16275 76.1013 0.988837 76.8686 0.629968C77.3029 0.426742 78.1173 0.809218 78.4848 1.38973C78.7153 1.75246 78.6756 1.93827 78.2582 2.45516C76.9256 4.10451 75.8439 6.43291 75.1821 9.07528C74.6494 10.5416 73.2355 11.3769 72.5952 11.6114C72.4819 11.6718 71.7959 12.0219 70.4702 12.4474C70.2682 12.512 70.069 12.5634 69.8754 12.6026C69.6456 12.6562 69.3745 12.6932 69.0678 12.7081C69.0262 12.7106 68.9855 12.7133 68.9457 12.7149C67.7769 12.7928 66.487 12.545 66.0903 11.297C65.9622 11.3677 65.828 11.4434 65.6899 11.5216H65.6879C64.388 12.254 62.6496 13.2332 60.9535 13.0714C60.4669 13.0157 59.7937 12.7337 59.3842 12.3184C58.5401 12.7478 57.6479 13.1119 56.6469 13.3224C55.4432 13.57 52.6062 13.8594 51.8471 11.9952C50.0763 12.7126 48.1348 13.1966 46.0043 13.214C45.3286 13.2295 44.1304 12.8765 43.6137 12.2003C43.5297 12.2421 43.4509 12.2825 43.3793 12.3204C41.6746 13.1806 39.4665 13.7148 37.3451 13.88C37.2543 13.88 37.1646 13.8738 37.0766 13.8634C35.9805 13.844 35.3872 13.5708 34.9604 12.8966C34.7847 12.6207 34.6471 12.3223 34.5512 12.0099L34.4623 11.627H32.2114C29.8664 11.627 28.5242 11.4795 27.5112 11.1104C26.9165 10.8941 26.9129 10.8961 26.4731 11.9454C25.9505 13.1924 25.5897 13.5646 24.8998 13.5655C24.1378 13.5655 23.399 13.0862 23.0395 12.3556C22.8823 12.0374 22.4323 11.7704 22.3881 11.7696C22.2802 11.7696 21.8429 11.9393 21.1909 12.2003C21.0264 12.2693 20.8616 12.3375 20.6977 12.4054C20.5932 12.4486 20.4912 12.4906 20.393 12.5313C18.7363 13.219 17.9044 13.5652 15.6762 13.464C14.7327 13.4102 13.1762 13.1053 12.5971 12.0841C12.007 11.0198 13.0526 10.0899 13.7709 9.45126C13.8882 9.34704 13.997 9.2503 14.0883 9.1622C14.1567 9.09154 14.2243 9.01205 14.2934 8.93075C14.6101 8.55828 14.963 8.14299 15.6098 8.31942C15.9412 8.4086 16.6046 8.82125 16.7172 9.1622C16.8503 9.57058 16.2914 9.98888 15.8627 10.3097C15.7085 10.425 15.5709 10.5282 15.4887 10.6134C15.307 10.8191 15.1526 11.0667 14.9985 11.3136C14.7895 11.6483 14.5807 11.9814 14.3061 12.2081C14.963 12.29 15.6534 12.0734 16.2748 11.878C16.4737 11.8154 16.6656 11.7548 16.8471 11.7071C17.6846 11.4917 18.4974 11.2589 19.3041 11.0079C20.0403 10.7733 20.5102 10.6632 20.9321 10.5645C21.5092 10.4295 21.9972 10.3161 22.9535 9.9327C23.2869 9.79687 24.1039 10.1435 24.2709 10.5509C24.3327 10.607 24.4313 10.6662 24.6176 10.7227L24.7485 10.0929C24.8259 9.69868 24.8693 9.29813 24.8784 8.89657C24.8784 8.38554 24.937 8.33288 25.478 8.37411C25.9988 8.41301 26.1406 8.48655 26.5795 8.93466C27.3921 9.76852 27.8221 9.89252 29.893 9.89169C30.8985 9.89168 32.361 9.85007 33.143 9.79891L34.5659 9.70712L34.7368 8.98837C34.8312 8.59278 35.096 7.77535 35.3246 7.17196L35.7387 6.07333L32.3422 6.1661C28.654 6.26696 27.7182 6.4604 26.2221 6.76962C26.1631 6.78183 26.1024 6.79416 26.0414 6.80673C24.868 7.04851 24.4824 7.00367 24.2241 6.59677C23.9658 6.18994 24.1627 6.05863 25.603 5.71688C26.2513 5.56368 26.6247 5.44726 26.9233 5.35458C27.9111 5.04794 28.0862 4.99466 34.728 4.67196L36.4379 4.58895L37.1225 3.37313C37.501 2.70276 38.01 1.7454 38.2543 1.24423C38.5028 0.743205 38.7935 0.258548 38.9086 0.170984C39.0327 0.0755024 39.1814 0.0162716 39.3373 8.55708e-05ZM78.268 9.87411C80.887 8.63882 82.1393 8.38178 83.0561 8.89169C84.2106 9.53373 84.0285 10.2885 82.6508 10.5753C82.1701 10.6752 81.0839 11.0949 80.2368 11.5079C77.5511 12.8171 76.747 12.9424 75.5561 12.2364C75.4018 12.1451 75.1866 12.0632 74.9741 11.9825C74.4338 11.7765 73.9132 11.5778 74.4731 11.2511C74.8686 11.0201 75.5212 10.8188 76.2299 10.6007C76.918 10.389 77.6586 10.1614 78.268 9.87411ZM64.2924 10.17C63.4631 10.3428 62.6808 10.691 61.9975 11.1895C61.96 11.2181 61.9225 11.2471 61.8862 11.2765C62.735 10.9772 63.5204 10.5912 64.2924 10.17ZM9.56976 3.65243C8.64028 3.64166 7.78532 4.52032 8.0512 5.45321C8.44488 6.8144 9.61983 7.31093 10.892 7.3663C11.0077 6.87197 11.0657 6.36935 11.0473 5.86337C10.9985 4.95529 10.6488 3.67251 9.56976 3.65243ZM18.4653 4.35555C18.8314 4.29779 19.1361 4.53635 19.1362 4.90536C19.1362 5.27443 18.8331 5.64377 18.4653 5.69247C18.037 5.74947 17.8906 5.46771 17.7953 5.02352C17.7175 4.66276 18.0006 4.42903 18.4653 4.35555Z" fill="#202224" style="fill:#202224;fill:color(display-p3 0.1255 0.1333 0.1412);fill-opacity:1;"/>
</svg>
