<svg width="111" height="90" viewBox="0 0 111 90" fill="none" xmlns="http://www.w3.org/2000/svg">
<path fill-rule="evenodd" clip-rule="evenodd" d="M24.0973 0.862305H87.6643C89.1811 0.862305 90.5822 1.64827 91.3387 2.92338L109.858 34.1419C110.819 35.7609 110.533 37.8043 109.163 39.1171L58.1877 87.9703C56.5364 89.5528 53.8799 89.5528 52.2286 87.9703L1.32173 39.1831C-0.0799916 37.8398 -0.342473 35.7367 0.688288 34.1077L20.4843 2.82322C21.2553 1.60483 22.6234 0.862305 24.0973 0.862305ZM79.4567 14.8003V23.5597H61.349V29.6329C74.0666 30.2819 83.6082 32.9475 83.679 36.1425L83.6786 42.803C83.6078 45.998 74.0666 48.6635 61.349 49.3125V64.2168H49.3252V49.3125C36.6076 48.6635 27.0661 45.998 26.9953 42.803L26.9957 36.1425C27.0665 32.9475 36.6076 30.2819 49.3252 29.6329V23.5597H31.2176V14.8003H79.4567ZM55.3371 44.7367C68.9091 44.7367 80.2529 42.4827 83.0291 39.4727C80.6749 36.9202 72.1596 34.9114 61.349 34.3597V40.7183C59.4114 40.8172 57.4 40.8693 55.3371 40.8693C53.2743 40.8693 51.2629 40.8172 49.3252 40.7183V34.3597C38.5146 34.9114 29.9993 36.9202 27.6451 39.4727C30.4213 42.4827 41.7652 44.7367 55.3371 44.7367Z" fill="#D3B25B"/>
</svg>
